%TF.GenerationSoftware,KiCad,Pcbnew,5.1.12-84ad8e8a86~92~ubuntu16.04.1*%
%TF.CreationDate,2023-12-01T21:15:30-03:00*%
%TF.ProjectId,BlackBox,426c6163-6b42-46f7-982e-6b696361645f,rev?*%
%TF.SameCoordinates,Original*%
%TF.FileFunction,Copper,L2,Bot*%
%TF.FilePolarity,Positive*%
%FSLAX46Y46*%
G04 Gerber Fmt 4.6, Leading zero omitted, Abs format (unit mm)*
G04 Created by KiCad (PCBNEW 5.1.12-84ad8e8a86~92~ubuntu16.04.1) date 2023-12-01 21:15:30*
%MOMM*%
%LPD*%
G01*
G04 APERTURE LIST*
%TA.AperFunction,ComponentPad*%
%ADD10R,1.050000X1.500000*%
%TD*%
%TA.AperFunction,ComponentPad*%
%ADD11O,1.050000X1.500000*%
%TD*%
%TA.AperFunction,ComponentPad*%
%ADD12C,1.600000*%
%TD*%
%TA.AperFunction,ComponentPad*%
%ADD13O,1.600000X1.600000*%
%TD*%
%TA.AperFunction,ComponentPad*%
%ADD14R,1.524000X1.524000*%
%TD*%
%TA.AperFunction,ComponentPad*%
%ADD15C,1.524000*%
%TD*%
%TA.AperFunction,ComponentPad*%
%ADD16C,1.400000*%
%TD*%
%TA.AperFunction,ComponentPad*%
%ADD17R,2.600000X2.600000*%
%TD*%
%TA.AperFunction,ComponentPad*%
%ADD18C,2.600000*%
%TD*%
%TA.AperFunction,ComponentPad*%
%ADD19O,2.000000X1.600000*%
%TD*%
%TA.AperFunction,ComponentPad*%
%ADD20R,2.000000X2.000000*%
%TD*%
%TA.AperFunction,ViaPad*%
%ADD21C,4.000000*%
%TD*%
%TA.AperFunction,ViaPad*%
%ADD22C,1.400000*%
%TD*%
%TA.AperFunction,Conductor*%
%ADD23C,1.000000*%
%TD*%
%TA.AperFunction,Conductor*%
%ADD24C,0.800000*%
%TD*%
%TA.AperFunction,Conductor*%
%ADD25C,0.600000*%
%TD*%
%TA.AperFunction,Conductor*%
%ADD26C,2.000000*%
%TD*%
%TA.AperFunction,Conductor*%
%ADD27C,0.254000*%
%TD*%
%TA.AperFunction,Conductor*%
%ADD28C,0.100000*%
%TD*%
G04 APERTURE END LIST*
D10*
%TO.P,U2,1*%
%TO.N,Net-(R2-Pad2)*%
X154686000Y-119634000D03*
D11*
%TO.P,U2,3*%
%TO.N,+3V3*%
X157226000Y-119634000D03*
%TO.P,U2,2*%
%TO.N,GND*%
X155956000Y-119634000D03*
%TD*%
D12*
%TO.P,R3,1*%
%TO.N,Net-(R2-Pad2)*%
X130540000Y-120142000D03*
D13*
%TO.P,R3,2*%
%TO.N,GND*%
X145780000Y-120142000D03*
%TD*%
%TO.P,R2,2*%
%TO.N,Net-(R2-Pad2)*%
X130540000Y-124460000D03*
D12*
%TO.P,R2,1*%
%TO.N,+3V3*%
X145780000Y-124460000D03*
%TD*%
D13*
%TO.P,R1,2*%
%TO.N,Net-(BT1-Pad1)*%
X130540000Y-128778000D03*
D12*
%TO.P,R1,1*%
%TO.N,+3V3*%
X145780000Y-128778000D03*
%TD*%
D14*
%TO.P,A1,1*%
%TO.N,+3V3*%
X139440000Y-101470000D03*
D15*
%TO.P,A1,2*%
%TO.N,GND*%
X139440000Y-104010000D03*
%TO.P,A1,3*%
%TO.N,SCL*%
X139440000Y-106550000D03*
%TO.P,A1,4*%
%TO.N,SDA*%
X139440000Y-109090000D03*
%TO.P,A1,5*%
%TO.N,Net-(A1-Pad5)*%
X139440000Y-111630000D03*
%TO.P,A1,6*%
%TO.N,Net-(A1-Pad6)*%
X139440000Y-114170000D03*
%TD*%
D16*
%TO.P,C1,1*%
%TO.N,+3V3*%
X157480000Y-111506000D03*
%TO.P,C1,2*%
%TO.N,GND*%
X154980000Y-111506000D03*
%TD*%
D12*
%TO.P,R4,1*%
%TO.N,RBF_switch*%
X145780000Y-133096000D03*
D13*
%TO.P,R4,2*%
%TO.N,GND*%
X130540000Y-133096000D03*
%TD*%
D17*
%TO.P,SW1,1*%
%TO.N,RBF_switch*%
X156972000Y-145288000D03*
D18*
%TO.P,SW1,2*%
%TO.N,+3V3*%
X156972000Y-140288000D03*
%TD*%
D19*
%TO.P,U1,2*%
%TO.N,Net-(U1-Pad2)*%
X156410000Y-86030000D03*
D20*
%TO.P,U1,1*%
%TO.N,Net-(U1-Pad1)*%
X156410000Y-88570000D03*
D19*
%TO.P,U1,3*%
%TO.N,Net-(U1-Pad3)*%
X156410000Y-83490000D03*
%TO.P,U1,4*%
%TO.N,Net-(U1-Pad4)*%
X156410000Y-80950000D03*
%TO.P,U1,5*%
%TO.N,Net-(U1-Pad5)*%
X156410000Y-78410000D03*
%TO.P,U1,6*%
%TO.N,Net-(U1-Pad6)*%
X156410000Y-75870000D03*
%TO.P,U1,7*%
%TO.N,Net-(U1-Pad7)*%
X156410000Y-73330000D03*
%TO.P,U1,8*%
%TO.N,+3V3*%
X156410000Y-70790000D03*
%TO.P,U1,9*%
%TO.N,Net-(U1-Pad9)*%
X133550000Y-70790000D03*
%TO.P,U1,10*%
%TO.N,GND*%
X133550000Y-73330000D03*
%TO.P,U1,11*%
%TO.N,RBF_switch*%
X133550000Y-75870000D03*
%TO.P,U1,12*%
%TO.N,Net-(U1-Pad12)*%
X133550000Y-78410000D03*
%TO.P,U1,13*%
%TO.N,SDA*%
X133550000Y-80950000D03*
%TO.P,U1,14*%
%TO.N,SCL*%
X133550000Y-83490000D03*
%TO.P,U1,15*%
%TO.N,Net-(U1-Pad15)*%
X133550000Y-86030000D03*
%TO.P,U1,16*%
%TO.N,Net-(U1-Pad16)*%
X133550000Y-88570000D03*
%TD*%
D21*
%TO.N,*%
X133000000Y-112500000D03*
D22*
%TO.N,GND*%
X124079000Y-147320000D03*
%TO.N,Net-(BT1-Pad1)*%
X103124000Y-68580000D03*
%TD*%
D23*
%TO.N,+3V3*%
X156410000Y-70790000D02*
X158720000Y-70790000D01*
X158720000Y-70790000D02*
X159980000Y-72050000D01*
X155630000Y-101470000D02*
X159980000Y-97120000D01*
X139440000Y-101470000D02*
X155630000Y-101470000D01*
X159980000Y-72050000D02*
X159980000Y-97120000D01*
X145780000Y-124468000D02*
X145780000Y-128794000D01*
D24*
X153942000Y-124468000D02*
X145780000Y-124468000D01*
X157226000Y-121184000D02*
X153942000Y-124468000D01*
X157226000Y-119634000D02*
X157226000Y-121184000D01*
X157480000Y-111506000D02*
X157480000Y-119380000D01*
D23*
X157480000Y-103320000D02*
X155630000Y-101470000D01*
X157480000Y-111506000D02*
X157480000Y-103320000D01*
D24*
X145780000Y-128778000D02*
X150114000Y-128778000D01*
X156972000Y-135636000D02*
X156972000Y-140288000D01*
X150114000Y-128778000D02*
X156972000Y-135636000D01*
%TO.N,GND*%
X155956000Y-119634000D02*
X155956000Y-116332000D01*
X154980000Y-115356000D02*
X154980000Y-111506000D01*
X155956000Y-116332000D02*
X154980000Y-115356000D01*
D25*
X139440000Y-104010000D02*
X151000000Y-104010000D01*
X154980000Y-107990000D02*
X154980000Y-111506000D01*
X151000000Y-104010000D02*
X154980000Y-107990000D01*
D24*
%TO.N,SCL*%
X133982000Y-106550000D02*
X139440000Y-106550000D01*
X130886000Y-103454000D02*
X133982000Y-106550000D01*
X131648000Y-83490000D02*
X130886000Y-84252000D01*
X130886000Y-84252000D02*
X130886000Y-103454000D01*
X133550000Y-83490000D02*
X131648000Y-83490000D01*
%TO.N,SDA*%
X129085990Y-104199588D02*
X129085990Y-81988010D01*
X133914570Y-109028168D02*
X129085990Y-104199588D01*
X139378168Y-109028168D02*
X133914570Y-109028168D01*
X139440000Y-109090000D02*
X139378168Y-109028168D01*
X130124000Y-80950000D02*
X133550000Y-80950000D01*
X129085990Y-81988010D02*
X130124000Y-80950000D01*
D26*
%TO.N,Net-(BT1-Pad1)*%
X103124000Y-68834000D02*
X103124000Y-106680000D01*
X125222000Y-128778000D02*
X130540000Y-128778000D01*
X103124000Y-106680000D02*
X125222000Y-128778000D01*
D24*
%TO.N,RBF_switch*%
X133550000Y-75870000D02*
X136982000Y-75870000D01*
X158750000Y-68072000D02*
X162052000Y-71374000D01*
X136982000Y-75870000D02*
X144780000Y-68072000D01*
X144780000Y-68072000D02*
X158750000Y-68072000D01*
X156972000Y-145288000D02*
X160528000Y-145288000D01*
X162052000Y-143764000D02*
X162052000Y-139700000D01*
X162052000Y-139700000D02*
X162052000Y-71374000D01*
X160528000Y-145288000D02*
X162052000Y-143764000D01*
X162052000Y-140208000D02*
X162052000Y-139700000D01*
X156972000Y-145288000D02*
X149098000Y-145288000D01*
X145780000Y-141970000D02*
X145780000Y-133096000D01*
X149098000Y-145288000D02*
X145780000Y-141970000D01*
%TO.N,Net-(R2-Pad2)*%
X130540000Y-124468000D02*
X130540000Y-120142000D01*
X135382000Y-120142000D02*
X130540000Y-120142000D01*
X151892000Y-119634000D02*
X149606000Y-117348000D01*
X154686000Y-119634000D02*
X151892000Y-119634000D01*
X149606000Y-117348000D02*
X138176000Y-117348000D01*
X138176000Y-117348000D02*
X135382000Y-120142000D01*
%TD*%
D27*
%TO.N,GND*%
X165290000Y-149290000D02*
X100710000Y-149290000D01*
X100710000Y-106680000D01*
X100986709Y-106680000D01*
X101027777Y-107096965D01*
X101149401Y-107497905D01*
X101216115Y-107622718D01*
X101346908Y-107867415D01*
X101612708Y-108191293D01*
X101693870Y-108257901D01*
X123510754Y-130074786D01*
X123009071Y-130282590D01*
X122541956Y-130594707D01*
X122144707Y-130991956D01*
X121832590Y-131459071D01*
X121617600Y-131978102D01*
X121508000Y-132529102D01*
X121508000Y-133090898D01*
X121617600Y-133641898D01*
X121832590Y-134160929D01*
X122144707Y-134628044D01*
X122541956Y-135025293D01*
X123009071Y-135337410D01*
X123528102Y-135552400D01*
X124079102Y-135662000D01*
X124640898Y-135662000D01*
X125191898Y-135552400D01*
X125710929Y-135337410D01*
X126178044Y-135025293D01*
X126575293Y-134628044D01*
X126887410Y-134160929D01*
X127102400Y-133641898D01*
X127141557Y-133445039D01*
X129148096Y-133445039D01*
X129188754Y-133579087D01*
X129308963Y-133833420D01*
X129476481Y-134059414D01*
X129684869Y-134248385D01*
X129926119Y-134393070D01*
X130190960Y-134487909D01*
X130413000Y-134366624D01*
X130413000Y-133223000D01*
X130667000Y-133223000D01*
X130667000Y-134366624D01*
X130889040Y-134487909D01*
X131153881Y-134393070D01*
X131395131Y-134248385D01*
X131603519Y-134059414D01*
X131771037Y-133833420D01*
X131891246Y-133579087D01*
X131931904Y-133445039D01*
X131809915Y-133223000D01*
X130667000Y-133223000D01*
X130413000Y-133223000D01*
X129270085Y-133223000D01*
X129148096Y-133445039D01*
X127141557Y-133445039D01*
X127212000Y-133090898D01*
X127212000Y-132746961D01*
X129148096Y-132746961D01*
X129270085Y-132969000D01*
X130413000Y-132969000D01*
X130413000Y-131825376D01*
X130667000Y-131825376D01*
X130667000Y-132969000D01*
X131809915Y-132969000D01*
X131931904Y-132746961D01*
X131891246Y-132612913D01*
X131771037Y-132358580D01*
X131603519Y-132132586D01*
X131395131Y-131943615D01*
X131153881Y-131798930D01*
X130889040Y-131704091D01*
X130667000Y-131825376D01*
X130413000Y-131825376D01*
X130190960Y-131704091D01*
X129926119Y-131798930D01*
X129684869Y-131943615D01*
X129476481Y-132132586D01*
X129308963Y-132358580D01*
X129188754Y-132612913D01*
X129148096Y-132746961D01*
X127212000Y-132746961D01*
X127212000Y-132529102D01*
X127102400Y-131978102D01*
X126887410Y-131459071D01*
X126575293Y-130991956D01*
X126488337Y-130905000D01*
X130644487Y-130905000D01*
X130956965Y-130874224D01*
X131357906Y-130752599D01*
X131727415Y-130555093D01*
X132051293Y-130289293D01*
X132317093Y-129965415D01*
X132514599Y-129595906D01*
X132636224Y-129194965D01*
X132677291Y-128778000D01*
X132636224Y-128361035D01*
X132514599Y-127960094D01*
X132317093Y-127590585D01*
X132051293Y-127266707D01*
X131727415Y-127000907D01*
X131357906Y-126803401D01*
X130956965Y-126681776D01*
X130644487Y-126651000D01*
X126103032Y-126651000D01*
X105251000Y-105798969D01*
X105251000Y-81988010D01*
X127551603Y-81988010D01*
X127558991Y-82063021D01*
X127558990Y-104124587D01*
X127551603Y-104199588D01*
X127558990Y-104274589D01*
X127558990Y-104274598D01*
X127581085Y-104498931D01*
X127668400Y-104786772D01*
X127810193Y-105052047D01*
X128001014Y-105284564D01*
X128059284Y-105332385D01*
X132198137Y-109471239D01*
X132087888Y-109493169D01*
X131518810Y-109728889D01*
X131006654Y-110071101D01*
X130571101Y-110506654D01*
X130228889Y-111018810D01*
X129993169Y-111587888D01*
X129873000Y-112192017D01*
X129873000Y-112807983D01*
X129993169Y-113412112D01*
X130228889Y-113981190D01*
X130571101Y-114493346D01*
X131006654Y-114928899D01*
X131518810Y-115271111D01*
X132087888Y-115506831D01*
X132692017Y-115627000D01*
X133307983Y-115627000D01*
X133912112Y-115506831D01*
X134481190Y-115271111D01*
X134993346Y-114928899D01*
X135428899Y-114493346D01*
X135771111Y-113981190D01*
X136006831Y-113412112D01*
X136127000Y-112807983D01*
X136127000Y-112192017D01*
X136006831Y-111587888D01*
X135771111Y-111018810D01*
X135461315Y-110555168D01*
X137886299Y-110555168D01*
X137765990Y-110735223D01*
X137623593Y-111078999D01*
X137551000Y-111443950D01*
X137551000Y-111816050D01*
X137623593Y-112181001D01*
X137765990Y-112524777D01*
X137972718Y-112834167D01*
X138038551Y-112900000D01*
X137972718Y-112965833D01*
X137765990Y-113275223D01*
X137623593Y-113618999D01*
X137551000Y-113983950D01*
X137551000Y-114356050D01*
X137623593Y-114721001D01*
X137765990Y-115064777D01*
X137972718Y-115374167D01*
X138235833Y-115637282D01*
X138510786Y-115821000D01*
X138251004Y-115821000D01*
X138176000Y-115813613D01*
X138100996Y-115821000D01*
X138100989Y-115821000D01*
X137903955Y-115840406D01*
X137876655Y-115843095D01*
X137588815Y-115930410D01*
X137323540Y-116072203D01*
X137323538Y-116072204D01*
X137323539Y-116072204D01*
X137149288Y-116215207D01*
X137149283Y-116215212D01*
X137091024Y-116263024D01*
X137043212Y-116321283D01*
X134749497Y-118615000D01*
X131723192Y-118615000D01*
X131452777Y-118434315D01*
X131102085Y-118289053D01*
X130729793Y-118215000D01*
X130350207Y-118215000D01*
X129977915Y-118289053D01*
X129627223Y-118434315D01*
X129311609Y-118645201D01*
X129043201Y-118913609D01*
X128832315Y-119229223D01*
X128687053Y-119579915D01*
X128613000Y-119952207D01*
X128613000Y-120331793D01*
X128687053Y-120704085D01*
X128832315Y-121054777D01*
X129013001Y-121325193D01*
X129013000Y-123276808D01*
X128832315Y-123547223D01*
X128687053Y-123897915D01*
X128613000Y-124270207D01*
X128613000Y-124649793D01*
X128687053Y-125022085D01*
X128832315Y-125372777D01*
X129043201Y-125688391D01*
X129311609Y-125956799D01*
X129627223Y-126167685D01*
X129977915Y-126312947D01*
X130350207Y-126387000D01*
X130729793Y-126387000D01*
X131102085Y-126312947D01*
X131452777Y-126167685D01*
X131768391Y-125956799D01*
X132036799Y-125688391D01*
X132247685Y-125372777D01*
X132392947Y-125022085D01*
X132467000Y-124649793D01*
X132467000Y-124270207D01*
X132392947Y-123897915D01*
X132247685Y-123547223D01*
X132067000Y-123276808D01*
X132067000Y-121669000D01*
X135306999Y-121669000D01*
X135382000Y-121676387D01*
X135457001Y-121669000D01*
X135457011Y-121669000D01*
X135681344Y-121646905D01*
X135969185Y-121559590D01*
X136234460Y-121417797D01*
X136466976Y-121226976D01*
X136514796Y-121168707D01*
X137192464Y-120491039D01*
X144388096Y-120491039D01*
X144428754Y-120625087D01*
X144548963Y-120879420D01*
X144716481Y-121105414D01*
X144924869Y-121294385D01*
X145166119Y-121439070D01*
X145430960Y-121533909D01*
X145653000Y-121412624D01*
X145653000Y-120269000D01*
X145907000Y-120269000D01*
X145907000Y-121412624D01*
X146129040Y-121533909D01*
X146393881Y-121439070D01*
X146635131Y-121294385D01*
X146843519Y-121105414D01*
X147011037Y-120879420D01*
X147131246Y-120625087D01*
X147171904Y-120491039D01*
X147049915Y-120269000D01*
X145907000Y-120269000D01*
X145653000Y-120269000D01*
X144510085Y-120269000D01*
X144388096Y-120491039D01*
X137192464Y-120491039D01*
X138808505Y-118875000D01*
X145115980Y-118875000D01*
X144924869Y-118989615D01*
X144716481Y-119178586D01*
X144548963Y-119404580D01*
X144428754Y-119658913D01*
X144388096Y-119792961D01*
X144510085Y-120015000D01*
X145653000Y-120015000D01*
X145653000Y-119995000D01*
X145907000Y-119995000D01*
X145907000Y-120015000D01*
X147049915Y-120015000D01*
X147171904Y-119792961D01*
X147131246Y-119658913D01*
X147011037Y-119404580D01*
X146843519Y-119178586D01*
X146635131Y-118989615D01*
X146444020Y-118875000D01*
X148973497Y-118875000D01*
X150759208Y-120660712D01*
X150807024Y-120718976D01*
X151039540Y-120909797D01*
X151304815Y-121051590D01*
X151592656Y-121138905D01*
X151816989Y-121161000D01*
X151816998Y-121161000D01*
X151891999Y-121168387D01*
X151967000Y-121161000D01*
X153340732Y-121161000D01*
X153360235Y-121184765D01*
X153531843Y-121325600D01*
X153727629Y-121430250D01*
X153940069Y-121494693D01*
X154161000Y-121516453D01*
X154734043Y-121516453D01*
X153309497Y-122941000D01*
X146975165Y-122941000D01*
X146692777Y-122752315D01*
X146342085Y-122607053D01*
X145969793Y-122533000D01*
X145590207Y-122533000D01*
X145217915Y-122607053D01*
X144867223Y-122752315D01*
X144551609Y-122963201D01*
X144283201Y-123231609D01*
X144072315Y-123547223D01*
X143927053Y-123897915D01*
X143853000Y-124270207D01*
X143853000Y-124649793D01*
X143927053Y-125022085D01*
X144072315Y-125372777D01*
X144153000Y-125493531D01*
X144153001Y-127744468D01*
X144072315Y-127865223D01*
X143927053Y-128215915D01*
X143853000Y-128588207D01*
X143853000Y-128967793D01*
X143927053Y-129340085D01*
X144072315Y-129690777D01*
X144283201Y-130006391D01*
X144551609Y-130274799D01*
X144867223Y-130485685D01*
X145217915Y-130630947D01*
X145590207Y-130705000D01*
X145969793Y-130705000D01*
X146342085Y-130630947D01*
X146692777Y-130485685D01*
X146963192Y-130305000D01*
X149481497Y-130305000D01*
X155445000Y-136268504D01*
X155445001Y-138389381D01*
X155424878Y-138402826D01*
X155086826Y-138740878D01*
X154821221Y-139138385D01*
X154638268Y-139580070D01*
X154545000Y-140048961D01*
X154545000Y-140527039D01*
X154638268Y-140995930D01*
X154821221Y-141437615D01*
X155086826Y-141835122D01*
X155424878Y-142173174D01*
X155822385Y-142438779D01*
X156264070Y-142621732D01*
X156732961Y-142715000D01*
X157211039Y-142715000D01*
X157679930Y-142621732D01*
X158121615Y-142438779D01*
X158519122Y-142173174D01*
X158857174Y-141835122D01*
X159122779Y-141437615D01*
X159305732Y-140995930D01*
X159399000Y-140527039D01*
X159399000Y-140048961D01*
X159305732Y-139580070D01*
X159122779Y-139138385D01*
X158857174Y-138740878D01*
X158519122Y-138402826D01*
X158499000Y-138389381D01*
X158499000Y-135711011D01*
X158506388Y-135636000D01*
X158476905Y-135336655D01*
X158389590Y-135048815D01*
X158377017Y-135025293D01*
X158247797Y-134783540D01*
X158056976Y-134551024D01*
X157998713Y-134503209D01*
X151246797Y-127751294D01*
X151198976Y-127693024D01*
X150966460Y-127502203D01*
X150701185Y-127360410D01*
X150413344Y-127273095D01*
X150189011Y-127251000D01*
X150189001Y-127251000D01*
X150114000Y-127243613D01*
X150038999Y-127251000D01*
X147407000Y-127251000D01*
X147407000Y-125995000D01*
X153866999Y-125995000D01*
X153942000Y-126002387D01*
X154017001Y-125995000D01*
X154017011Y-125995000D01*
X154241344Y-125972905D01*
X154529185Y-125885590D01*
X154794460Y-125743797D01*
X155026976Y-125552976D01*
X155074797Y-125494706D01*
X158252712Y-122316792D01*
X158310976Y-122268976D01*
X158501797Y-122036460D01*
X158643590Y-121771185D01*
X158730905Y-121483344D01*
X158753000Y-121259011D01*
X158753000Y-121259002D01*
X158760387Y-121184001D01*
X158753000Y-121109000D01*
X158753000Y-120506663D01*
X158759634Y-120494252D01*
X158854097Y-120182848D01*
X158870311Y-120018220D01*
X158897590Y-119967185D01*
X158984905Y-119679344D01*
X159007000Y-119455011D01*
X159007000Y-112509196D01*
X159099066Y-112371409D01*
X159236789Y-112038916D01*
X159307000Y-111685944D01*
X159307000Y-111326056D01*
X159236789Y-110973084D01*
X159107000Y-110659745D01*
X159107000Y-103399914D01*
X159114871Y-103319999D01*
X159107000Y-103240085D01*
X159107000Y-103240075D01*
X159083458Y-103001052D01*
X158990425Y-102694362D01*
X158839346Y-102411714D01*
X158686978Y-102226052D01*
X158686975Y-102226049D01*
X158636029Y-102163971D01*
X158573951Y-102113025D01*
X157930925Y-101470000D01*
X160525001Y-98875925D01*
X160525000Y-139624989D01*
X160525000Y-140283010D01*
X160525001Y-140283019D01*
X160525000Y-143131496D01*
X159895497Y-143761000D01*
X159380852Y-143761000D01*
X159318250Y-143554629D01*
X159213600Y-143358843D01*
X159072765Y-143187235D01*
X158901157Y-143046400D01*
X158705371Y-142941750D01*
X158492931Y-142877307D01*
X158272000Y-142855547D01*
X155672000Y-142855547D01*
X155451069Y-142877307D01*
X155238629Y-142941750D01*
X155042843Y-143046400D01*
X154871235Y-143187235D01*
X154730400Y-143358843D01*
X154625750Y-143554629D01*
X154563148Y-143761000D01*
X149730504Y-143761000D01*
X147307000Y-141337497D01*
X147307000Y-134279192D01*
X147487685Y-134008777D01*
X147632947Y-133658085D01*
X147707000Y-133285793D01*
X147707000Y-132906207D01*
X147632947Y-132533915D01*
X147487685Y-132183223D01*
X147276799Y-131867609D01*
X147008391Y-131599201D01*
X146692777Y-131388315D01*
X146342085Y-131243053D01*
X145969793Y-131169000D01*
X145590207Y-131169000D01*
X145217915Y-131243053D01*
X144867223Y-131388315D01*
X144551609Y-131599201D01*
X144283201Y-131867609D01*
X144072315Y-132183223D01*
X143927053Y-132533915D01*
X143853000Y-132906207D01*
X143853000Y-133285793D01*
X143927053Y-133658085D01*
X144072315Y-134008777D01*
X144253001Y-134279193D01*
X144253000Y-141894999D01*
X144245613Y-141970000D01*
X144253000Y-142045001D01*
X144253000Y-142045010D01*
X144275095Y-142269343D01*
X144362410Y-142557184D01*
X144504203Y-142822459D01*
X144695024Y-143054976D01*
X144753294Y-143102797D01*
X147965208Y-146314712D01*
X148013024Y-146372976D01*
X148245540Y-146563797D01*
X148510813Y-146705589D01*
X148510815Y-146705590D01*
X148798655Y-146792905D01*
X149098000Y-146822388D01*
X149173011Y-146815000D01*
X154563148Y-146815000D01*
X154625750Y-147021371D01*
X154730400Y-147217157D01*
X154871235Y-147388765D01*
X155042843Y-147529600D01*
X155238629Y-147634250D01*
X155451069Y-147698693D01*
X155672000Y-147720453D01*
X158272000Y-147720453D01*
X158492931Y-147698693D01*
X158705371Y-147634250D01*
X158901157Y-147529600D01*
X159072765Y-147388765D01*
X159213600Y-147217157D01*
X159318250Y-147021371D01*
X159380852Y-146815000D01*
X160452999Y-146815000D01*
X160528000Y-146822387D01*
X160603001Y-146815000D01*
X160603011Y-146815000D01*
X160827344Y-146792905D01*
X161115185Y-146705590D01*
X161380460Y-146563797D01*
X161612976Y-146372976D01*
X161660797Y-146314707D01*
X163078713Y-144896791D01*
X163136976Y-144848976D01*
X163327797Y-144616460D01*
X163469590Y-144351185D01*
X163556905Y-144063344D01*
X163579000Y-143839011D01*
X163579000Y-143839002D01*
X163586387Y-143764001D01*
X163579000Y-143689000D01*
X163579000Y-71449000D01*
X163586387Y-71373999D01*
X163579000Y-71298998D01*
X163579000Y-71298989D01*
X163556905Y-71074656D01*
X163469590Y-70786815D01*
X163327797Y-70521540D01*
X163136976Y-70289024D01*
X163078712Y-70241208D01*
X159882797Y-67045294D01*
X159834976Y-66987024D01*
X159602460Y-66796203D01*
X159337185Y-66654410D01*
X159049344Y-66567095D01*
X158825011Y-66545000D01*
X158825001Y-66545000D01*
X158750000Y-66537613D01*
X158674999Y-66545000D01*
X144855000Y-66545000D01*
X144779999Y-66537613D01*
X144704998Y-66545000D01*
X144704989Y-66545000D01*
X144480656Y-66567095D01*
X144192815Y-66654410D01*
X143927540Y-66796203D01*
X143695024Y-66987024D01*
X143647208Y-67045288D01*
X136349497Y-74343000D01*
X134926891Y-74343000D01*
X134836669Y-74268956D01*
X134870639Y-74234425D01*
X135025551Y-73998421D01*
X135131444Y-73736730D01*
X135141904Y-73679039D01*
X135019915Y-73457000D01*
X133677000Y-73457000D01*
X133677000Y-73477000D01*
X133423000Y-73477000D01*
X133423000Y-73457000D01*
X132080085Y-73457000D01*
X131958096Y-73679039D01*
X131968556Y-73736730D01*
X132074449Y-73998421D01*
X132229361Y-74234425D01*
X132263331Y-74268956D01*
X131980813Y-74500813D01*
X131740006Y-74794237D01*
X131561071Y-75129001D01*
X131450883Y-75492242D01*
X131413677Y-75870000D01*
X131450883Y-76247758D01*
X131561071Y-76610999D01*
X131740006Y-76945763D01*
X131899412Y-77140000D01*
X131740006Y-77334237D01*
X131561071Y-77669001D01*
X131450883Y-78032242D01*
X131413677Y-78410000D01*
X131450883Y-78787758D01*
X131561071Y-79150999D01*
X131706458Y-79423000D01*
X130199004Y-79423000D01*
X130124000Y-79415613D01*
X130048996Y-79423000D01*
X130048989Y-79423000D01*
X129851955Y-79442406D01*
X129824655Y-79445095D01*
X129536815Y-79532410D01*
X129271540Y-79674203D01*
X129039024Y-79865024D01*
X128991207Y-79923289D01*
X128059279Y-80855218D01*
X128001015Y-80903034D01*
X127953199Y-80961298D01*
X127953198Y-80961299D01*
X127810194Y-81135550D01*
X127668401Y-81400825D01*
X127581086Y-81688666D01*
X127551603Y-81988010D01*
X105251000Y-81988010D01*
X105251000Y-77329102D01*
X105508000Y-77329102D01*
X105508000Y-77890898D01*
X105617600Y-78441898D01*
X105832590Y-78960929D01*
X106144707Y-79428044D01*
X106541956Y-79825293D01*
X107009071Y-80137410D01*
X107528102Y-80352400D01*
X108079102Y-80462000D01*
X108640898Y-80462000D01*
X109191898Y-80352400D01*
X109710929Y-80137410D01*
X110178044Y-79825293D01*
X110575293Y-79428044D01*
X110887410Y-78960929D01*
X111102400Y-78441898D01*
X111212000Y-77890898D01*
X111212000Y-77329102D01*
X111102400Y-76778102D01*
X110887410Y-76259071D01*
X110575293Y-75791956D01*
X110178044Y-75394707D01*
X109710929Y-75082590D01*
X109191898Y-74867600D01*
X108640898Y-74758000D01*
X108079102Y-74758000D01*
X107528102Y-74867600D01*
X107009071Y-75082590D01*
X106541956Y-75394707D01*
X106144707Y-75791956D01*
X105832590Y-76259071D01*
X105617600Y-76778102D01*
X105508000Y-77329102D01*
X105251000Y-77329102D01*
X105251000Y-69051303D01*
X122038000Y-69051303D01*
X122038000Y-69508697D01*
X122127233Y-69957302D01*
X122302270Y-70379879D01*
X122556385Y-70760189D01*
X122879811Y-71083615D01*
X123260121Y-71337730D01*
X123682698Y-71512767D01*
X124131303Y-71602000D01*
X124588697Y-71602000D01*
X125037302Y-71512767D01*
X125459879Y-71337730D01*
X125840189Y-71083615D01*
X126133804Y-70790000D01*
X131413677Y-70790000D01*
X131450883Y-71167758D01*
X131561071Y-71530999D01*
X131740006Y-71865763D01*
X131980813Y-72159187D01*
X132263331Y-72391044D01*
X132229361Y-72425575D01*
X132074449Y-72661579D01*
X131968556Y-72923270D01*
X131958096Y-72980961D01*
X132080085Y-73203000D01*
X133423000Y-73203000D01*
X133423000Y-73183000D01*
X133677000Y-73183000D01*
X133677000Y-73203000D01*
X135019915Y-73203000D01*
X135141904Y-72980961D01*
X135131444Y-72923270D01*
X135025551Y-72661579D01*
X134870639Y-72425575D01*
X134836669Y-72391044D01*
X135119187Y-72159187D01*
X135359994Y-71865763D01*
X135538929Y-71530999D01*
X135649117Y-71167758D01*
X135686323Y-70790000D01*
X135649117Y-70412242D01*
X135538929Y-70049001D01*
X135359994Y-69714237D01*
X135119187Y-69420813D01*
X134825763Y-69180006D01*
X134490999Y-69001071D01*
X134127758Y-68890883D01*
X133844658Y-68863000D01*
X133255342Y-68863000D01*
X132972242Y-68890883D01*
X132609001Y-69001071D01*
X132274237Y-69180006D01*
X131980813Y-69420813D01*
X131740006Y-69714237D01*
X131561071Y-70049001D01*
X131450883Y-70412242D01*
X131413677Y-70790000D01*
X126133804Y-70790000D01*
X126163615Y-70760189D01*
X126417730Y-70379879D01*
X126592767Y-69957302D01*
X126682000Y-69508697D01*
X126682000Y-69051303D01*
X126592767Y-68602698D01*
X126417730Y-68180121D01*
X126163615Y-67799811D01*
X125840189Y-67476385D01*
X125459879Y-67222270D01*
X125037302Y-67047233D01*
X124588697Y-66958000D01*
X124131303Y-66958000D01*
X123682698Y-67047233D01*
X123260121Y-67222270D01*
X122879811Y-67476385D01*
X122556385Y-67799811D01*
X122302270Y-68180121D01*
X122127233Y-68602698D01*
X122038000Y-69051303D01*
X105251000Y-69051303D01*
X105251000Y-68729513D01*
X105220224Y-68417035D01*
X105098599Y-68016094D01*
X104901093Y-67646585D01*
X104635293Y-67322707D01*
X104311415Y-67056907D01*
X103941905Y-66859401D01*
X103540964Y-66737776D01*
X103124000Y-66696709D01*
X102707035Y-66737776D01*
X102306094Y-66859401D01*
X101936585Y-67056907D01*
X101612707Y-67322707D01*
X101346907Y-67646585D01*
X101149401Y-68016095D01*
X101027776Y-68417036D01*
X100997000Y-68729514D01*
X100997001Y-106575505D01*
X100986709Y-106680000D01*
X100710000Y-106680000D01*
X100710000Y-60710000D01*
X165290001Y-60710000D01*
X165290000Y-149290000D01*
%TA.AperFunction,Conductor*%
D28*
G36*
X165290000Y-149290000D02*
G01*
X100710000Y-149290000D01*
X100710000Y-106680000D01*
X100986709Y-106680000D01*
X101027777Y-107096965D01*
X101149401Y-107497905D01*
X101216115Y-107622718D01*
X101346908Y-107867415D01*
X101612708Y-108191293D01*
X101693870Y-108257901D01*
X123510754Y-130074786D01*
X123009071Y-130282590D01*
X122541956Y-130594707D01*
X122144707Y-130991956D01*
X121832590Y-131459071D01*
X121617600Y-131978102D01*
X121508000Y-132529102D01*
X121508000Y-133090898D01*
X121617600Y-133641898D01*
X121832590Y-134160929D01*
X122144707Y-134628044D01*
X122541956Y-135025293D01*
X123009071Y-135337410D01*
X123528102Y-135552400D01*
X124079102Y-135662000D01*
X124640898Y-135662000D01*
X125191898Y-135552400D01*
X125710929Y-135337410D01*
X126178044Y-135025293D01*
X126575293Y-134628044D01*
X126887410Y-134160929D01*
X127102400Y-133641898D01*
X127141557Y-133445039D01*
X129148096Y-133445039D01*
X129188754Y-133579087D01*
X129308963Y-133833420D01*
X129476481Y-134059414D01*
X129684869Y-134248385D01*
X129926119Y-134393070D01*
X130190960Y-134487909D01*
X130413000Y-134366624D01*
X130413000Y-133223000D01*
X130667000Y-133223000D01*
X130667000Y-134366624D01*
X130889040Y-134487909D01*
X131153881Y-134393070D01*
X131395131Y-134248385D01*
X131603519Y-134059414D01*
X131771037Y-133833420D01*
X131891246Y-133579087D01*
X131931904Y-133445039D01*
X131809915Y-133223000D01*
X130667000Y-133223000D01*
X130413000Y-133223000D01*
X129270085Y-133223000D01*
X129148096Y-133445039D01*
X127141557Y-133445039D01*
X127212000Y-133090898D01*
X127212000Y-132746961D01*
X129148096Y-132746961D01*
X129270085Y-132969000D01*
X130413000Y-132969000D01*
X130413000Y-131825376D01*
X130667000Y-131825376D01*
X130667000Y-132969000D01*
X131809915Y-132969000D01*
X131931904Y-132746961D01*
X131891246Y-132612913D01*
X131771037Y-132358580D01*
X131603519Y-132132586D01*
X131395131Y-131943615D01*
X131153881Y-131798930D01*
X130889040Y-131704091D01*
X130667000Y-131825376D01*
X130413000Y-131825376D01*
X130190960Y-131704091D01*
X129926119Y-131798930D01*
X129684869Y-131943615D01*
X129476481Y-132132586D01*
X129308963Y-132358580D01*
X129188754Y-132612913D01*
X129148096Y-132746961D01*
X127212000Y-132746961D01*
X127212000Y-132529102D01*
X127102400Y-131978102D01*
X126887410Y-131459071D01*
X126575293Y-130991956D01*
X126488337Y-130905000D01*
X130644487Y-130905000D01*
X130956965Y-130874224D01*
X131357906Y-130752599D01*
X131727415Y-130555093D01*
X132051293Y-130289293D01*
X132317093Y-129965415D01*
X132514599Y-129595906D01*
X132636224Y-129194965D01*
X132677291Y-128778000D01*
X132636224Y-128361035D01*
X132514599Y-127960094D01*
X132317093Y-127590585D01*
X132051293Y-127266707D01*
X131727415Y-127000907D01*
X131357906Y-126803401D01*
X130956965Y-126681776D01*
X130644487Y-126651000D01*
X126103032Y-126651000D01*
X105251000Y-105798969D01*
X105251000Y-81988010D01*
X127551603Y-81988010D01*
X127558991Y-82063021D01*
X127558990Y-104124587D01*
X127551603Y-104199588D01*
X127558990Y-104274589D01*
X127558990Y-104274598D01*
X127581085Y-104498931D01*
X127668400Y-104786772D01*
X127810193Y-105052047D01*
X128001014Y-105284564D01*
X128059284Y-105332385D01*
X132198137Y-109471239D01*
X132087888Y-109493169D01*
X131518810Y-109728889D01*
X131006654Y-110071101D01*
X130571101Y-110506654D01*
X130228889Y-111018810D01*
X129993169Y-111587888D01*
X129873000Y-112192017D01*
X129873000Y-112807983D01*
X129993169Y-113412112D01*
X130228889Y-113981190D01*
X130571101Y-114493346D01*
X131006654Y-114928899D01*
X131518810Y-115271111D01*
X132087888Y-115506831D01*
X132692017Y-115627000D01*
X133307983Y-115627000D01*
X133912112Y-115506831D01*
X134481190Y-115271111D01*
X134993346Y-114928899D01*
X135428899Y-114493346D01*
X135771111Y-113981190D01*
X136006831Y-113412112D01*
X136127000Y-112807983D01*
X136127000Y-112192017D01*
X136006831Y-111587888D01*
X135771111Y-111018810D01*
X135461315Y-110555168D01*
X137886299Y-110555168D01*
X137765990Y-110735223D01*
X137623593Y-111078999D01*
X137551000Y-111443950D01*
X137551000Y-111816050D01*
X137623593Y-112181001D01*
X137765990Y-112524777D01*
X137972718Y-112834167D01*
X138038551Y-112900000D01*
X137972718Y-112965833D01*
X137765990Y-113275223D01*
X137623593Y-113618999D01*
X137551000Y-113983950D01*
X137551000Y-114356050D01*
X137623593Y-114721001D01*
X137765990Y-115064777D01*
X137972718Y-115374167D01*
X138235833Y-115637282D01*
X138510786Y-115821000D01*
X138251004Y-115821000D01*
X138176000Y-115813613D01*
X138100996Y-115821000D01*
X138100989Y-115821000D01*
X137903955Y-115840406D01*
X137876655Y-115843095D01*
X137588815Y-115930410D01*
X137323540Y-116072203D01*
X137323538Y-116072204D01*
X137323539Y-116072204D01*
X137149288Y-116215207D01*
X137149283Y-116215212D01*
X137091024Y-116263024D01*
X137043212Y-116321283D01*
X134749497Y-118615000D01*
X131723192Y-118615000D01*
X131452777Y-118434315D01*
X131102085Y-118289053D01*
X130729793Y-118215000D01*
X130350207Y-118215000D01*
X129977915Y-118289053D01*
X129627223Y-118434315D01*
X129311609Y-118645201D01*
X129043201Y-118913609D01*
X128832315Y-119229223D01*
X128687053Y-119579915D01*
X128613000Y-119952207D01*
X128613000Y-120331793D01*
X128687053Y-120704085D01*
X128832315Y-121054777D01*
X129013001Y-121325193D01*
X129013000Y-123276808D01*
X128832315Y-123547223D01*
X128687053Y-123897915D01*
X128613000Y-124270207D01*
X128613000Y-124649793D01*
X128687053Y-125022085D01*
X128832315Y-125372777D01*
X129043201Y-125688391D01*
X129311609Y-125956799D01*
X129627223Y-126167685D01*
X129977915Y-126312947D01*
X130350207Y-126387000D01*
X130729793Y-126387000D01*
X131102085Y-126312947D01*
X131452777Y-126167685D01*
X131768391Y-125956799D01*
X132036799Y-125688391D01*
X132247685Y-125372777D01*
X132392947Y-125022085D01*
X132467000Y-124649793D01*
X132467000Y-124270207D01*
X132392947Y-123897915D01*
X132247685Y-123547223D01*
X132067000Y-123276808D01*
X132067000Y-121669000D01*
X135306999Y-121669000D01*
X135382000Y-121676387D01*
X135457001Y-121669000D01*
X135457011Y-121669000D01*
X135681344Y-121646905D01*
X135969185Y-121559590D01*
X136234460Y-121417797D01*
X136466976Y-121226976D01*
X136514796Y-121168707D01*
X137192464Y-120491039D01*
X144388096Y-120491039D01*
X144428754Y-120625087D01*
X144548963Y-120879420D01*
X144716481Y-121105414D01*
X144924869Y-121294385D01*
X145166119Y-121439070D01*
X145430960Y-121533909D01*
X145653000Y-121412624D01*
X145653000Y-120269000D01*
X145907000Y-120269000D01*
X145907000Y-121412624D01*
X146129040Y-121533909D01*
X146393881Y-121439070D01*
X146635131Y-121294385D01*
X146843519Y-121105414D01*
X147011037Y-120879420D01*
X147131246Y-120625087D01*
X147171904Y-120491039D01*
X147049915Y-120269000D01*
X145907000Y-120269000D01*
X145653000Y-120269000D01*
X144510085Y-120269000D01*
X144388096Y-120491039D01*
X137192464Y-120491039D01*
X138808505Y-118875000D01*
X145115980Y-118875000D01*
X144924869Y-118989615D01*
X144716481Y-119178586D01*
X144548963Y-119404580D01*
X144428754Y-119658913D01*
X144388096Y-119792961D01*
X144510085Y-120015000D01*
X145653000Y-120015000D01*
X145653000Y-119995000D01*
X145907000Y-119995000D01*
X145907000Y-120015000D01*
X147049915Y-120015000D01*
X147171904Y-119792961D01*
X147131246Y-119658913D01*
X147011037Y-119404580D01*
X146843519Y-119178586D01*
X146635131Y-118989615D01*
X146444020Y-118875000D01*
X148973497Y-118875000D01*
X150759208Y-120660712D01*
X150807024Y-120718976D01*
X151039540Y-120909797D01*
X151304815Y-121051590D01*
X151592656Y-121138905D01*
X151816989Y-121161000D01*
X151816998Y-121161000D01*
X151891999Y-121168387D01*
X151967000Y-121161000D01*
X153340732Y-121161000D01*
X153360235Y-121184765D01*
X153531843Y-121325600D01*
X153727629Y-121430250D01*
X153940069Y-121494693D01*
X154161000Y-121516453D01*
X154734043Y-121516453D01*
X153309497Y-122941000D01*
X146975165Y-122941000D01*
X146692777Y-122752315D01*
X146342085Y-122607053D01*
X145969793Y-122533000D01*
X145590207Y-122533000D01*
X145217915Y-122607053D01*
X144867223Y-122752315D01*
X144551609Y-122963201D01*
X144283201Y-123231609D01*
X144072315Y-123547223D01*
X143927053Y-123897915D01*
X143853000Y-124270207D01*
X143853000Y-124649793D01*
X143927053Y-125022085D01*
X144072315Y-125372777D01*
X144153000Y-125493531D01*
X144153001Y-127744468D01*
X144072315Y-127865223D01*
X143927053Y-128215915D01*
X143853000Y-128588207D01*
X143853000Y-128967793D01*
X143927053Y-129340085D01*
X144072315Y-129690777D01*
X144283201Y-130006391D01*
X144551609Y-130274799D01*
X144867223Y-130485685D01*
X145217915Y-130630947D01*
X145590207Y-130705000D01*
X145969793Y-130705000D01*
X146342085Y-130630947D01*
X146692777Y-130485685D01*
X146963192Y-130305000D01*
X149481497Y-130305000D01*
X155445000Y-136268504D01*
X155445001Y-138389381D01*
X155424878Y-138402826D01*
X155086826Y-138740878D01*
X154821221Y-139138385D01*
X154638268Y-139580070D01*
X154545000Y-140048961D01*
X154545000Y-140527039D01*
X154638268Y-140995930D01*
X154821221Y-141437615D01*
X155086826Y-141835122D01*
X155424878Y-142173174D01*
X155822385Y-142438779D01*
X156264070Y-142621732D01*
X156732961Y-142715000D01*
X157211039Y-142715000D01*
X157679930Y-142621732D01*
X158121615Y-142438779D01*
X158519122Y-142173174D01*
X158857174Y-141835122D01*
X159122779Y-141437615D01*
X159305732Y-140995930D01*
X159399000Y-140527039D01*
X159399000Y-140048961D01*
X159305732Y-139580070D01*
X159122779Y-139138385D01*
X158857174Y-138740878D01*
X158519122Y-138402826D01*
X158499000Y-138389381D01*
X158499000Y-135711011D01*
X158506388Y-135636000D01*
X158476905Y-135336655D01*
X158389590Y-135048815D01*
X158377017Y-135025293D01*
X158247797Y-134783540D01*
X158056976Y-134551024D01*
X157998713Y-134503209D01*
X151246797Y-127751294D01*
X151198976Y-127693024D01*
X150966460Y-127502203D01*
X150701185Y-127360410D01*
X150413344Y-127273095D01*
X150189011Y-127251000D01*
X150189001Y-127251000D01*
X150114000Y-127243613D01*
X150038999Y-127251000D01*
X147407000Y-127251000D01*
X147407000Y-125995000D01*
X153866999Y-125995000D01*
X153942000Y-126002387D01*
X154017001Y-125995000D01*
X154017011Y-125995000D01*
X154241344Y-125972905D01*
X154529185Y-125885590D01*
X154794460Y-125743797D01*
X155026976Y-125552976D01*
X155074797Y-125494706D01*
X158252712Y-122316792D01*
X158310976Y-122268976D01*
X158501797Y-122036460D01*
X158643590Y-121771185D01*
X158730905Y-121483344D01*
X158753000Y-121259011D01*
X158753000Y-121259002D01*
X158760387Y-121184001D01*
X158753000Y-121109000D01*
X158753000Y-120506663D01*
X158759634Y-120494252D01*
X158854097Y-120182848D01*
X158870311Y-120018220D01*
X158897590Y-119967185D01*
X158984905Y-119679344D01*
X159007000Y-119455011D01*
X159007000Y-112509196D01*
X159099066Y-112371409D01*
X159236789Y-112038916D01*
X159307000Y-111685944D01*
X159307000Y-111326056D01*
X159236789Y-110973084D01*
X159107000Y-110659745D01*
X159107000Y-103399914D01*
X159114871Y-103319999D01*
X159107000Y-103240085D01*
X159107000Y-103240075D01*
X159083458Y-103001052D01*
X158990425Y-102694362D01*
X158839346Y-102411714D01*
X158686978Y-102226052D01*
X158686975Y-102226049D01*
X158636029Y-102163971D01*
X158573951Y-102113025D01*
X157930925Y-101470000D01*
X160525001Y-98875925D01*
X160525000Y-139624989D01*
X160525000Y-140283010D01*
X160525001Y-140283019D01*
X160525000Y-143131496D01*
X159895497Y-143761000D01*
X159380852Y-143761000D01*
X159318250Y-143554629D01*
X159213600Y-143358843D01*
X159072765Y-143187235D01*
X158901157Y-143046400D01*
X158705371Y-142941750D01*
X158492931Y-142877307D01*
X158272000Y-142855547D01*
X155672000Y-142855547D01*
X155451069Y-142877307D01*
X155238629Y-142941750D01*
X155042843Y-143046400D01*
X154871235Y-143187235D01*
X154730400Y-143358843D01*
X154625750Y-143554629D01*
X154563148Y-143761000D01*
X149730504Y-143761000D01*
X147307000Y-141337497D01*
X147307000Y-134279192D01*
X147487685Y-134008777D01*
X147632947Y-133658085D01*
X147707000Y-133285793D01*
X147707000Y-132906207D01*
X147632947Y-132533915D01*
X147487685Y-132183223D01*
X147276799Y-131867609D01*
X147008391Y-131599201D01*
X146692777Y-131388315D01*
X146342085Y-131243053D01*
X145969793Y-131169000D01*
X145590207Y-131169000D01*
X145217915Y-131243053D01*
X144867223Y-131388315D01*
X144551609Y-131599201D01*
X144283201Y-131867609D01*
X144072315Y-132183223D01*
X143927053Y-132533915D01*
X143853000Y-132906207D01*
X143853000Y-133285793D01*
X143927053Y-133658085D01*
X144072315Y-134008777D01*
X144253001Y-134279193D01*
X144253000Y-141894999D01*
X144245613Y-141970000D01*
X144253000Y-142045001D01*
X144253000Y-142045010D01*
X144275095Y-142269343D01*
X144362410Y-142557184D01*
X144504203Y-142822459D01*
X144695024Y-143054976D01*
X144753294Y-143102797D01*
X147965208Y-146314712D01*
X148013024Y-146372976D01*
X148245540Y-146563797D01*
X148510813Y-146705589D01*
X148510815Y-146705590D01*
X148798655Y-146792905D01*
X149098000Y-146822388D01*
X149173011Y-146815000D01*
X154563148Y-146815000D01*
X154625750Y-147021371D01*
X154730400Y-147217157D01*
X154871235Y-147388765D01*
X155042843Y-147529600D01*
X155238629Y-147634250D01*
X155451069Y-147698693D01*
X155672000Y-147720453D01*
X158272000Y-147720453D01*
X158492931Y-147698693D01*
X158705371Y-147634250D01*
X158901157Y-147529600D01*
X159072765Y-147388765D01*
X159213600Y-147217157D01*
X159318250Y-147021371D01*
X159380852Y-146815000D01*
X160452999Y-146815000D01*
X160528000Y-146822387D01*
X160603001Y-146815000D01*
X160603011Y-146815000D01*
X160827344Y-146792905D01*
X161115185Y-146705590D01*
X161380460Y-146563797D01*
X161612976Y-146372976D01*
X161660797Y-146314707D01*
X163078713Y-144896791D01*
X163136976Y-144848976D01*
X163327797Y-144616460D01*
X163469590Y-144351185D01*
X163556905Y-144063344D01*
X163579000Y-143839011D01*
X163579000Y-143839002D01*
X163586387Y-143764001D01*
X163579000Y-143689000D01*
X163579000Y-71449000D01*
X163586387Y-71373999D01*
X163579000Y-71298998D01*
X163579000Y-71298989D01*
X163556905Y-71074656D01*
X163469590Y-70786815D01*
X163327797Y-70521540D01*
X163136976Y-70289024D01*
X163078712Y-70241208D01*
X159882797Y-67045294D01*
X159834976Y-66987024D01*
X159602460Y-66796203D01*
X159337185Y-66654410D01*
X159049344Y-66567095D01*
X158825011Y-66545000D01*
X158825001Y-66545000D01*
X158750000Y-66537613D01*
X158674999Y-66545000D01*
X144855000Y-66545000D01*
X144779999Y-66537613D01*
X144704998Y-66545000D01*
X144704989Y-66545000D01*
X144480656Y-66567095D01*
X144192815Y-66654410D01*
X143927540Y-66796203D01*
X143695024Y-66987024D01*
X143647208Y-67045288D01*
X136349497Y-74343000D01*
X134926891Y-74343000D01*
X134836669Y-74268956D01*
X134870639Y-74234425D01*
X135025551Y-73998421D01*
X135131444Y-73736730D01*
X135141904Y-73679039D01*
X135019915Y-73457000D01*
X133677000Y-73457000D01*
X133677000Y-73477000D01*
X133423000Y-73477000D01*
X133423000Y-73457000D01*
X132080085Y-73457000D01*
X131958096Y-73679039D01*
X131968556Y-73736730D01*
X132074449Y-73998421D01*
X132229361Y-74234425D01*
X132263331Y-74268956D01*
X131980813Y-74500813D01*
X131740006Y-74794237D01*
X131561071Y-75129001D01*
X131450883Y-75492242D01*
X131413677Y-75870000D01*
X131450883Y-76247758D01*
X131561071Y-76610999D01*
X131740006Y-76945763D01*
X131899412Y-77140000D01*
X131740006Y-77334237D01*
X131561071Y-77669001D01*
X131450883Y-78032242D01*
X131413677Y-78410000D01*
X131450883Y-78787758D01*
X131561071Y-79150999D01*
X131706458Y-79423000D01*
X130199004Y-79423000D01*
X130124000Y-79415613D01*
X130048996Y-79423000D01*
X130048989Y-79423000D01*
X129851955Y-79442406D01*
X129824655Y-79445095D01*
X129536815Y-79532410D01*
X129271540Y-79674203D01*
X129039024Y-79865024D01*
X128991207Y-79923289D01*
X128059279Y-80855218D01*
X128001015Y-80903034D01*
X127953199Y-80961298D01*
X127953198Y-80961299D01*
X127810194Y-81135550D01*
X127668401Y-81400825D01*
X127581086Y-81688666D01*
X127551603Y-81988010D01*
X105251000Y-81988010D01*
X105251000Y-77329102D01*
X105508000Y-77329102D01*
X105508000Y-77890898D01*
X105617600Y-78441898D01*
X105832590Y-78960929D01*
X106144707Y-79428044D01*
X106541956Y-79825293D01*
X107009071Y-80137410D01*
X107528102Y-80352400D01*
X108079102Y-80462000D01*
X108640898Y-80462000D01*
X109191898Y-80352400D01*
X109710929Y-80137410D01*
X110178044Y-79825293D01*
X110575293Y-79428044D01*
X110887410Y-78960929D01*
X111102400Y-78441898D01*
X111212000Y-77890898D01*
X111212000Y-77329102D01*
X111102400Y-76778102D01*
X110887410Y-76259071D01*
X110575293Y-75791956D01*
X110178044Y-75394707D01*
X109710929Y-75082590D01*
X109191898Y-74867600D01*
X108640898Y-74758000D01*
X108079102Y-74758000D01*
X107528102Y-74867600D01*
X107009071Y-75082590D01*
X106541956Y-75394707D01*
X106144707Y-75791956D01*
X105832590Y-76259071D01*
X105617600Y-76778102D01*
X105508000Y-77329102D01*
X105251000Y-77329102D01*
X105251000Y-69051303D01*
X122038000Y-69051303D01*
X122038000Y-69508697D01*
X122127233Y-69957302D01*
X122302270Y-70379879D01*
X122556385Y-70760189D01*
X122879811Y-71083615D01*
X123260121Y-71337730D01*
X123682698Y-71512767D01*
X124131303Y-71602000D01*
X124588697Y-71602000D01*
X125037302Y-71512767D01*
X125459879Y-71337730D01*
X125840189Y-71083615D01*
X126133804Y-70790000D01*
X131413677Y-70790000D01*
X131450883Y-71167758D01*
X131561071Y-71530999D01*
X131740006Y-71865763D01*
X131980813Y-72159187D01*
X132263331Y-72391044D01*
X132229361Y-72425575D01*
X132074449Y-72661579D01*
X131968556Y-72923270D01*
X131958096Y-72980961D01*
X132080085Y-73203000D01*
X133423000Y-73203000D01*
X133423000Y-73183000D01*
X133677000Y-73183000D01*
X133677000Y-73203000D01*
X135019915Y-73203000D01*
X135141904Y-72980961D01*
X135131444Y-72923270D01*
X135025551Y-72661579D01*
X134870639Y-72425575D01*
X134836669Y-72391044D01*
X135119187Y-72159187D01*
X135359994Y-71865763D01*
X135538929Y-71530999D01*
X135649117Y-71167758D01*
X135686323Y-70790000D01*
X135649117Y-70412242D01*
X135538929Y-70049001D01*
X135359994Y-69714237D01*
X135119187Y-69420813D01*
X134825763Y-69180006D01*
X134490999Y-69001071D01*
X134127758Y-68890883D01*
X133844658Y-68863000D01*
X133255342Y-68863000D01*
X132972242Y-68890883D01*
X132609001Y-69001071D01*
X132274237Y-69180006D01*
X131980813Y-69420813D01*
X131740006Y-69714237D01*
X131561071Y-70049001D01*
X131450883Y-70412242D01*
X131413677Y-70790000D01*
X126133804Y-70790000D01*
X126163615Y-70760189D01*
X126417730Y-70379879D01*
X126592767Y-69957302D01*
X126682000Y-69508697D01*
X126682000Y-69051303D01*
X126592767Y-68602698D01*
X126417730Y-68180121D01*
X126163615Y-67799811D01*
X125840189Y-67476385D01*
X125459879Y-67222270D01*
X125037302Y-67047233D01*
X124588697Y-66958000D01*
X124131303Y-66958000D01*
X123682698Y-67047233D01*
X123260121Y-67222270D01*
X122879811Y-67476385D01*
X122556385Y-67799811D01*
X122302270Y-68180121D01*
X122127233Y-68602698D01*
X122038000Y-69051303D01*
X105251000Y-69051303D01*
X105251000Y-68729513D01*
X105220224Y-68417035D01*
X105098599Y-68016094D01*
X104901093Y-67646585D01*
X104635293Y-67322707D01*
X104311415Y-67056907D01*
X103941905Y-66859401D01*
X103540964Y-66737776D01*
X103124000Y-66696709D01*
X102707035Y-66737776D01*
X102306094Y-66859401D01*
X101936585Y-67056907D01*
X101612707Y-67322707D01*
X101346907Y-67646585D01*
X101149401Y-68016095D01*
X101027776Y-68417036D01*
X100997000Y-68729514D01*
X100997001Y-106575505D01*
X100986709Y-106680000D01*
X100710000Y-106680000D01*
X100710000Y-60710000D01*
X165290001Y-60710000D01*
X165290000Y-149290000D01*
G37*
%TD.AperFunction*%
D27*
X155853001Y-103993927D02*
X155853000Y-110482758D01*
X155838317Y-110468075D01*
X155721663Y-110584729D01*
X155662203Y-110350963D01*
X155423758Y-110240066D01*
X155168260Y-110177817D01*
X154905527Y-110166610D01*
X154645656Y-110206875D01*
X154398634Y-110297065D01*
X154297797Y-110350963D01*
X154238336Y-110584731D01*
X154980000Y-111326395D01*
X154994143Y-111312253D01*
X155173748Y-111491858D01*
X155159605Y-111506000D01*
X155173748Y-111520143D01*
X154994143Y-111699748D01*
X154980000Y-111685605D01*
X154238336Y-112427269D01*
X154297797Y-112661037D01*
X154536242Y-112771934D01*
X154791740Y-112834183D01*
X155054473Y-112845390D01*
X155314344Y-112805125D01*
X155561366Y-112714935D01*
X155662203Y-112661037D01*
X155721663Y-112427271D01*
X155838317Y-112543925D01*
X155920975Y-112461267D01*
X155953000Y-112509196D01*
X155953001Y-118035009D01*
X155840157Y-117942400D01*
X155644371Y-117837750D01*
X155431931Y-117773307D01*
X155211000Y-117751547D01*
X154161000Y-117751547D01*
X153940069Y-117773307D01*
X153727629Y-117837750D01*
X153531843Y-117942400D01*
X153360235Y-118083235D01*
X153340732Y-118107000D01*
X152524504Y-118107000D01*
X150738797Y-116321294D01*
X150690976Y-116263024D01*
X150458460Y-116072203D01*
X150193185Y-115930410D01*
X149905344Y-115843095D01*
X149681011Y-115821000D01*
X149681001Y-115821000D01*
X149606000Y-115813613D01*
X149530999Y-115821000D01*
X140369214Y-115821000D01*
X140644167Y-115637282D01*
X140907282Y-115374167D01*
X141114010Y-115064777D01*
X141256407Y-114721001D01*
X141329000Y-114356050D01*
X141329000Y-113983950D01*
X141256407Y-113618999D01*
X141114010Y-113275223D01*
X140907282Y-112965833D01*
X140841449Y-112900000D01*
X140907282Y-112834167D01*
X141114010Y-112524777D01*
X141256407Y-112181001D01*
X141329000Y-111816050D01*
X141329000Y-111580473D01*
X153640610Y-111580473D01*
X153680875Y-111840344D01*
X153771065Y-112087366D01*
X153824963Y-112188203D01*
X154058731Y-112247664D01*
X154800395Y-111506000D01*
X154058731Y-110764336D01*
X153824963Y-110823797D01*
X153714066Y-111062242D01*
X153651817Y-111317740D01*
X153640610Y-111580473D01*
X141329000Y-111580473D01*
X141329000Y-111443950D01*
X141256407Y-111078999D01*
X141114010Y-110735223D01*
X140907282Y-110425833D01*
X140841449Y-110360000D01*
X140907282Y-110294167D01*
X141114010Y-109984777D01*
X141256407Y-109641001D01*
X141329000Y-109276050D01*
X141329000Y-108903950D01*
X141256407Y-108538999D01*
X141114010Y-108195223D01*
X140907282Y-107885833D01*
X140841449Y-107820000D01*
X140907282Y-107754167D01*
X141114010Y-107444777D01*
X141256407Y-107101001D01*
X141329000Y-106736050D01*
X141329000Y-106363950D01*
X141256407Y-105998999D01*
X141114010Y-105655223D01*
X140907282Y-105345833D01*
X140644167Y-105082718D01*
X140468803Y-104965543D01*
X140521977Y-104912369D01*
X140405567Y-104795959D01*
X140645656Y-104728980D01*
X140762756Y-104479952D01*
X140829023Y-104212865D01*
X140841910Y-103937983D01*
X140800922Y-103665867D01*
X140707636Y-103406977D01*
X140645656Y-103291020D01*
X140618369Y-103283408D01*
X140635371Y-103278250D01*
X140831157Y-103173600D01*
X140924494Y-103097000D01*
X154956075Y-103097000D01*
X155853001Y-103993927D01*
%TA.AperFunction,Conductor*%
D28*
G36*
X155853001Y-103993927D02*
G01*
X155853000Y-110482758D01*
X155838317Y-110468075D01*
X155721663Y-110584729D01*
X155662203Y-110350963D01*
X155423758Y-110240066D01*
X155168260Y-110177817D01*
X154905527Y-110166610D01*
X154645656Y-110206875D01*
X154398634Y-110297065D01*
X154297797Y-110350963D01*
X154238336Y-110584731D01*
X154980000Y-111326395D01*
X154994143Y-111312253D01*
X155173748Y-111491858D01*
X155159605Y-111506000D01*
X155173748Y-111520143D01*
X154994143Y-111699748D01*
X154980000Y-111685605D01*
X154238336Y-112427269D01*
X154297797Y-112661037D01*
X154536242Y-112771934D01*
X154791740Y-112834183D01*
X155054473Y-112845390D01*
X155314344Y-112805125D01*
X155561366Y-112714935D01*
X155662203Y-112661037D01*
X155721663Y-112427271D01*
X155838317Y-112543925D01*
X155920975Y-112461267D01*
X155953000Y-112509196D01*
X155953001Y-118035009D01*
X155840157Y-117942400D01*
X155644371Y-117837750D01*
X155431931Y-117773307D01*
X155211000Y-117751547D01*
X154161000Y-117751547D01*
X153940069Y-117773307D01*
X153727629Y-117837750D01*
X153531843Y-117942400D01*
X153360235Y-118083235D01*
X153340732Y-118107000D01*
X152524504Y-118107000D01*
X150738797Y-116321294D01*
X150690976Y-116263024D01*
X150458460Y-116072203D01*
X150193185Y-115930410D01*
X149905344Y-115843095D01*
X149681011Y-115821000D01*
X149681001Y-115821000D01*
X149606000Y-115813613D01*
X149530999Y-115821000D01*
X140369214Y-115821000D01*
X140644167Y-115637282D01*
X140907282Y-115374167D01*
X141114010Y-115064777D01*
X141256407Y-114721001D01*
X141329000Y-114356050D01*
X141329000Y-113983950D01*
X141256407Y-113618999D01*
X141114010Y-113275223D01*
X140907282Y-112965833D01*
X140841449Y-112900000D01*
X140907282Y-112834167D01*
X141114010Y-112524777D01*
X141256407Y-112181001D01*
X141329000Y-111816050D01*
X141329000Y-111580473D01*
X153640610Y-111580473D01*
X153680875Y-111840344D01*
X153771065Y-112087366D01*
X153824963Y-112188203D01*
X154058731Y-112247664D01*
X154800395Y-111506000D01*
X154058731Y-110764336D01*
X153824963Y-110823797D01*
X153714066Y-111062242D01*
X153651817Y-111317740D01*
X153640610Y-111580473D01*
X141329000Y-111580473D01*
X141329000Y-111443950D01*
X141256407Y-111078999D01*
X141114010Y-110735223D01*
X140907282Y-110425833D01*
X140841449Y-110360000D01*
X140907282Y-110294167D01*
X141114010Y-109984777D01*
X141256407Y-109641001D01*
X141329000Y-109276050D01*
X141329000Y-108903950D01*
X141256407Y-108538999D01*
X141114010Y-108195223D01*
X140907282Y-107885833D01*
X140841449Y-107820000D01*
X140907282Y-107754167D01*
X141114010Y-107444777D01*
X141256407Y-107101001D01*
X141329000Y-106736050D01*
X141329000Y-106363950D01*
X141256407Y-105998999D01*
X141114010Y-105655223D01*
X140907282Y-105345833D01*
X140644167Y-105082718D01*
X140468803Y-104965543D01*
X140521977Y-104912369D01*
X140405567Y-104795959D01*
X140645656Y-104728980D01*
X140762756Y-104479952D01*
X140829023Y-104212865D01*
X140841910Y-103937983D01*
X140800922Y-103665867D01*
X140707636Y-103406977D01*
X140645656Y-103291020D01*
X140618369Y-103283408D01*
X140635371Y-103278250D01*
X140831157Y-103173600D01*
X140924494Y-103097000D01*
X154956075Y-103097000D01*
X155853001Y-103993927D01*
G37*
%TD.AperFunction*%
D27*
X139633748Y-103995858D02*
X139619605Y-104010000D01*
X139633748Y-104024143D01*
X139454143Y-104203748D01*
X139440000Y-104189605D01*
X139425858Y-104203748D01*
X139246253Y-104024143D01*
X139260395Y-104010000D01*
X139246253Y-103995858D01*
X139425858Y-103816253D01*
X139440000Y-103830395D01*
X139454143Y-103816253D01*
X139633748Y-103995858D01*
%TA.AperFunction,Conductor*%
D28*
G36*
X139633748Y-103995858D02*
G01*
X139619605Y-104010000D01*
X139633748Y-104024143D01*
X139454143Y-104203748D01*
X139440000Y-104189605D01*
X139425858Y-104203748D01*
X139246253Y-104024143D01*
X139260395Y-104010000D01*
X139246253Y-103995858D01*
X139425858Y-103816253D01*
X139440000Y-103830395D01*
X139454143Y-103816253D01*
X139633748Y-103995858D01*
G37*
%TD.AperFunction*%
%TD*%
M02*
