%TF.GenerationSoftware,KiCad,Pcbnew,5.1.12-84ad8e8a86~92~ubuntu16.04.1*%
%TF.CreationDate,2023-12-01T21:15:30-03:00*%
%TF.ProjectId,BlackBox,426c6163-6b42-46f7-982e-6b696361645f,rev?*%
%TF.SameCoordinates,Original*%
%TF.FileFunction,Soldermask,Top*%
%TF.FilePolarity,Negative*%
%FSLAX46Y46*%
G04 Gerber Fmt 4.6, Leading zero omitted, Abs format (unit mm)*
G04 Created by KiCad (PCBNEW 5.1.12-84ad8e8a86~92~ubuntu16.04.1) date 2023-12-01 21:15:30*
%MOMM*%
%LPD*%
G01*
G04 APERTURE LIST*
%ADD10O,3.050000X3.500000*%
%ADD11C,3.600000*%
%ADD12O,3.600000X3.600000*%
%ADD13C,3.524000*%
%ADD14C,5.450000*%
%ADD15C,4.390000*%
%ADD16C,3.400000*%
%ADD17C,4.600000*%
%ADD18O,4.000000X3.600000*%
G04 APERTURE END LIST*
%TO.C,U2*%
G36*
G01*
X153161000Y-120384001D02*
X153161000Y-118883999D01*
G75*
G02*
X154160999Y-117884000I999999J0D01*
G01*
X155211001Y-117884000D01*
G75*
G02*
X156211000Y-118883999I0J-999999D01*
G01*
X156211000Y-120384001D01*
G75*
G02*
X155211001Y-121384000I-999999J0D01*
G01*
X154160999Y-121384000D01*
G75*
G02*
X153161000Y-120384001I0J999999D01*
G01*
G37*
D10*
X157226000Y-119634000D03*
X155956000Y-119634000D03*
%TD*%
D11*
%TO.C,R3*%
X130540000Y-120142000D03*
D12*
X145780000Y-120142000D03*
%TD*%
%TO.C,R2*%
X130540000Y-124460000D03*
D11*
X145780000Y-124460000D03*
%TD*%
D12*
%TO.C,R1*%
X130540000Y-128778000D03*
D11*
X145780000Y-128778000D03*
%TD*%
%TO.C,A1*%
G36*
G01*
X137678000Y-102232000D02*
X137678000Y-100708000D01*
G75*
G02*
X138678000Y-99708000I1000000J0D01*
G01*
X140202000Y-99708000D01*
G75*
G02*
X141202000Y-100708000I0J-1000000D01*
G01*
X141202000Y-102232000D01*
G75*
G02*
X140202000Y-103232000I-1000000J0D01*
G01*
X138678000Y-103232000D01*
G75*
G02*
X137678000Y-102232000I0J1000000D01*
G01*
G37*
D13*
X139440000Y-104010000D03*
X139440000Y-106550000D03*
X139440000Y-109090000D03*
X139440000Y-111630000D03*
X139440000Y-114170000D03*
%TD*%
%TO.C,BT1*%
G36*
G01*
X113185000Y-61210000D02*
X119535000Y-61210000D01*
G75*
G02*
X120535000Y-62210000I0J-1000000D01*
G01*
X120535000Y-69550000D01*
G75*
G02*
X119535000Y-70550000I-1000000J0D01*
G01*
X113185000Y-70550000D01*
G75*
G02*
X112185000Y-69550000I0J1000000D01*
G01*
X112185000Y-62210000D01*
G75*
G02*
X113185000Y-61210000I1000000J0D01*
G01*
G37*
G36*
G01*
X113185000Y-139870000D02*
X119535000Y-139870000D01*
G75*
G02*
X120535000Y-140870000I0J-1000000D01*
G01*
X120535000Y-148210000D01*
G75*
G02*
X119535000Y-149210000I-1000000J0D01*
G01*
X113185000Y-149210000D01*
G75*
G02*
X112185000Y-148210000I0J1000000D01*
G01*
X112185000Y-140870000D01*
G75*
G02*
X113185000Y-139870000I1000000J0D01*
G01*
G37*
D14*
X124360000Y-132810000D03*
X108360000Y-77610000D03*
D15*
X124360000Y-69280000D03*
%TD*%
D16*
%TO.C,C1*%
X157480000Y-111506000D03*
X154980000Y-111506000D03*
%TD*%
D11*
%TO.C,R4*%
X145780000Y-133096000D03*
D12*
X130540000Y-133096000D03*
%TD*%
%TO.C,SW1*%
G36*
G01*
X158272000Y-147588000D02*
X155672000Y-147588000D01*
G75*
G02*
X154672000Y-146588000I0J1000000D01*
G01*
X154672000Y-143988000D01*
G75*
G02*
X155672000Y-142988000I1000000J0D01*
G01*
X158272000Y-142988000D01*
G75*
G02*
X159272000Y-143988000I0J-1000000D01*
G01*
X159272000Y-146588000D01*
G75*
G02*
X158272000Y-147588000I-1000000J0D01*
G01*
G37*
D17*
X156972000Y-140288000D03*
%TD*%
D18*
%TO.C,U1*%
X156410000Y-86030000D03*
G36*
G01*
X158410000Y-87570000D02*
X158410000Y-89570000D01*
G75*
G02*
X157410000Y-90570000I-1000000J0D01*
G01*
X155410000Y-90570000D01*
G75*
G02*
X154410000Y-89570000I0J1000000D01*
G01*
X154410000Y-87570000D01*
G75*
G02*
X155410000Y-86570000I1000000J0D01*
G01*
X157410000Y-86570000D01*
G75*
G02*
X158410000Y-87570000I0J-1000000D01*
G01*
G37*
X156410000Y-83490000D03*
X156410000Y-80950000D03*
X156410000Y-78410000D03*
X156410000Y-75870000D03*
X156410000Y-73330000D03*
X156410000Y-70790000D03*
X133550000Y-70790000D03*
X133550000Y-73330000D03*
X133550000Y-75870000D03*
X133550000Y-78410000D03*
X133550000Y-80950000D03*
X133550000Y-83490000D03*
X133550000Y-86030000D03*
X133550000Y-88570000D03*
%TD*%
M02*
