%TF.GenerationSoftware,KiCad,Pcbnew,5.1.12-84ad8e8a86~92~ubuntu16.04.1*%
%TF.CreationDate,2023-12-01T21:15:30-03:00*%
%TF.ProjectId,BlackBox,426c6163-6b42-46f7-982e-6b696361645f,rev?*%
%TF.SameCoordinates,Original*%
%TF.FileFunction,Copper,L1,Top*%
%TF.FilePolarity,Positive*%
%FSLAX46Y46*%
G04 Gerber Fmt 4.6, Leading zero omitted, Abs format (unit mm)*
G04 Created by KiCad (PCBNEW 5.1.12-84ad8e8a86~92~ubuntu16.04.1) date 2023-12-01 21:15:30*
%MOMM*%
%LPD*%
G01*
G04 APERTURE LIST*
%TA.AperFunction,NonConductor*%
%ADD10C,0.300000*%
%TD*%
%TA.AperFunction,ComponentPad*%
%ADD11R,1.050000X1.500000*%
%TD*%
%TA.AperFunction,ComponentPad*%
%ADD12O,1.050000X1.500000*%
%TD*%
%TA.AperFunction,ComponentPad*%
%ADD13C,1.600000*%
%TD*%
%TA.AperFunction,ComponentPad*%
%ADD14O,1.600000X1.600000*%
%TD*%
%TA.AperFunction,ComponentPad*%
%ADD15R,1.524000X1.524000*%
%TD*%
%TA.AperFunction,ComponentPad*%
%ADD16C,1.524000*%
%TD*%
%TA.AperFunction,SMDPad,CuDef*%
%ADD17R,6.350000X7.340000*%
%TD*%
%TA.AperFunction,ComponentPad*%
%ADD18C,1.400000*%
%TD*%
%TA.AperFunction,ComponentPad*%
%ADD19R,2.600000X2.600000*%
%TD*%
%TA.AperFunction,ComponentPad*%
%ADD20C,2.600000*%
%TD*%
%TA.AperFunction,ComponentPad*%
%ADD21O,2.000000X1.600000*%
%TD*%
%TA.AperFunction,ComponentPad*%
%ADD22R,2.000000X2.000000*%
%TD*%
%TA.AperFunction,ViaPad*%
%ADD23C,4.000000*%
%TD*%
%TA.AperFunction,ViaPad*%
%ADD24C,1.400000*%
%TD*%
%TA.AperFunction,Conductor*%
%ADD25C,0.800000*%
%TD*%
%TA.AperFunction,Conductor*%
%ADD26C,2.000000*%
%TD*%
%TA.AperFunction,Conductor*%
%ADD27C,1.000000*%
%TD*%
%TA.AperFunction,Conductor*%
%ADD28C,0.254000*%
%TD*%
%TA.AperFunction,Conductor*%
%ADD29C,0.100000*%
%TD*%
G04 APERTURE END LIST*
D10*
X108817142Y-146394285D02*
X111102857Y-146394285D01*
X108857142Y-63234285D02*
X111142857Y-63234285D01*
X110000000Y-64377142D02*
X110000000Y-62091428D01*
X131608142Y-139069857D02*
X131822428Y-139141285D01*
X131893857Y-139212714D01*
X131965285Y-139355571D01*
X131965285Y-139569857D01*
X131893857Y-139712714D01*
X131822428Y-139784142D01*
X131679571Y-139855571D01*
X131108142Y-139855571D01*
X131108142Y-138355571D01*
X131608142Y-138355571D01*
X131751000Y-138427000D01*
X131822428Y-138498428D01*
X131893857Y-138641285D01*
X131893857Y-138784142D01*
X131822428Y-138927000D01*
X131751000Y-138998428D01*
X131608142Y-139069857D01*
X131108142Y-139069857D01*
X132822428Y-139855571D02*
X132679571Y-139784142D01*
X132608142Y-139641285D01*
X132608142Y-138355571D01*
X134036714Y-139855571D02*
X134036714Y-139069857D01*
X133965285Y-138927000D01*
X133822428Y-138855571D01*
X133536714Y-138855571D01*
X133393857Y-138927000D01*
X134036714Y-139784142D02*
X133893857Y-139855571D01*
X133536714Y-139855571D01*
X133393857Y-139784142D01*
X133322428Y-139641285D01*
X133322428Y-139498428D01*
X133393857Y-139355571D01*
X133536714Y-139284142D01*
X133893857Y-139284142D01*
X134036714Y-139212714D01*
X135393857Y-139784142D02*
X135251000Y-139855571D01*
X134965285Y-139855571D01*
X134822428Y-139784142D01*
X134751000Y-139712714D01*
X134679571Y-139569857D01*
X134679571Y-139141285D01*
X134751000Y-138998428D01*
X134822428Y-138927000D01*
X134965285Y-138855571D01*
X135251000Y-138855571D01*
X135393857Y-138927000D01*
X136036714Y-139855571D02*
X136036714Y-138355571D01*
X136179571Y-139284142D02*
X136608142Y-139855571D01*
X136608142Y-138855571D02*
X136036714Y-139427000D01*
X138893857Y-139069857D02*
X139108142Y-139141285D01*
X139179571Y-139212714D01*
X139251000Y-139355571D01*
X139251000Y-139569857D01*
X139179571Y-139712714D01*
X139108142Y-139784142D01*
X138965285Y-139855571D01*
X138393857Y-139855571D01*
X138393857Y-138355571D01*
X138893857Y-138355571D01*
X139036714Y-138427000D01*
X139108142Y-138498428D01*
X139179571Y-138641285D01*
X139179571Y-138784142D01*
X139108142Y-138927000D01*
X139036714Y-138998428D01*
X138893857Y-139069857D01*
X138393857Y-139069857D01*
X140108142Y-139855571D02*
X139965285Y-139784142D01*
X139893857Y-139712714D01*
X139822428Y-139569857D01*
X139822428Y-139141285D01*
X139893857Y-138998428D01*
X139965285Y-138927000D01*
X140108142Y-138855571D01*
X140322428Y-138855571D01*
X140465285Y-138927000D01*
X140536714Y-138998428D01*
X140608142Y-139141285D01*
X140608142Y-139569857D01*
X140536714Y-139712714D01*
X140465285Y-139784142D01*
X140322428Y-139855571D01*
X140108142Y-139855571D01*
X141108142Y-139855571D02*
X141893857Y-138855571D01*
X141108142Y-138855571D02*
X141893857Y-139855571D01*
X143465285Y-138855571D02*
X143822428Y-139855571D01*
X144179571Y-138855571D01*
X145536714Y-139855571D02*
X144679571Y-139855571D01*
X145108142Y-139855571D02*
X145108142Y-138355571D01*
X144965285Y-138569857D01*
X144822428Y-138712714D01*
X144679571Y-138784142D01*
X146179571Y-139712714D02*
X146251000Y-139784142D01*
X146179571Y-139855571D01*
X146108142Y-139784142D01*
X146179571Y-139712714D01*
X146179571Y-139855571D01*
X147179571Y-138355571D02*
X147322428Y-138355571D01*
X147465285Y-138427000D01*
X147536714Y-138498428D01*
X147608142Y-138641285D01*
X147679571Y-138927000D01*
X147679571Y-139284142D01*
X147608142Y-139569857D01*
X147536714Y-139712714D01*
X147465285Y-139784142D01*
X147322428Y-139855571D01*
X147179571Y-139855571D01*
X147036714Y-139784142D01*
X146965285Y-139712714D01*
X146893857Y-139569857D01*
X146822428Y-139284142D01*
X146822428Y-138927000D01*
X146893857Y-138641285D01*
X146965285Y-138498428D01*
X147036714Y-138427000D01*
X147179571Y-138355571D01*
X131108142Y-141619857D02*
X131608142Y-141619857D01*
X131822428Y-142405571D02*
X131108142Y-142405571D01*
X131108142Y-140905571D01*
X131822428Y-140905571D01*
X132393857Y-141977000D02*
X133108142Y-141977000D01*
X132251000Y-142405571D02*
X132751000Y-140905571D01*
X133251000Y-142405571D01*
X134036714Y-140905571D02*
X134179571Y-140905571D01*
X134322428Y-140977000D01*
X134393857Y-141048428D01*
X134465285Y-141191285D01*
X134536714Y-141477000D01*
X134536714Y-141834142D01*
X134465285Y-142119857D01*
X134393857Y-142262714D01*
X134322428Y-142334142D01*
X134179571Y-142405571D01*
X134036714Y-142405571D01*
X133893857Y-142334142D01*
X133822428Y-142262714D01*
X133751000Y-142119857D01*
X133679571Y-141834142D01*
X133679571Y-141477000D01*
X133751000Y-141191285D01*
X133822428Y-141048428D01*
X133893857Y-140977000D01*
X134036714Y-140905571D01*
X135036714Y-140905571D02*
X136036714Y-140905571D01*
X135393857Y-142405571D01*
X137322428Y-140905571D02*
X136608142Y-140905571D01*
X136536714Y-141619857D01*
X136608142Y-141548428D01*
X136751000Y-141477000D01*
X137108142Y-141477000D01*
X137251000Y-141548428D01*
X137322428Y-141619857D01*
X137393857Y-141762714D01*
X137393857Y-142119857D01*
X137322428Y-142262714D01*
X137251000Y-142334142D01*
X137108142Y-142405571D01*
X136751000Y-142405571D01*
X136608142Y-142334142D01*
X136536714Y-142262714D01*
X131965285Y-144812714D02*
X131893857Y-144884142D01*
X131679571Y-144955571D01*
X131536714Y-144955571D01*
X131322428Y-144884142D01*
X131179571Y-144741285D01*
X131108142Y-144598428D01*
X131036714Y-144312714D01*
X131036714Y-144098428D01*
X131108142Y-143812714D01*
X131179571Y-143669857D01*
X131322428Y-143527000D01*
X131536714Y-143455571D01*
X131679571Y-143455571D01*
X131893857Y-143527000D01*
X131965285Y-143598428D01*
X132608142Y-144812714D02*
X132679571Y-144884142D01*
X132608142Y-144955571D01*
X132536714Y-144884142D01*
X132608142Y-144812714D01*
X132608142Y-144955571D01*
X135322428Y-144955571D02*
X134822428Y-144241285D01*
X134465285Y-144955571D02*
X134465285Y-143455571D01*
X135036714Y-143455571D01*
X135179571Y-143527000D01*
X135251000Y-143598428D01*
X135322428Y-143741285D01*
X135322428Y-143955571D01*
X135251000Y-144098428D01*
X135179571Y-144169857D01*
X135036714Y-144241285D01*
X134465285Y-144241285D01*
X135965285Y-144812714D02*
X136036714Y-144884142D01*
X135965285Y-144955571D01*
X135893857Y-144884142D01*
X135965285Y-144812714D01*
X135965285Y-144955571D01*
X138679571Y-144812714D02*
X138608142Y-144884142D01*
X138393857Y-144955571D01*
X138251000Y-144955571D01*
X138036714Y-144884142D01*
X137893857Y-144741285D01*
X137822428Y-144598428D01*
X137751000Y-144312714D01*
X137751000Y-144098428D01*
X137822428Y-143812714D01*
X137893857Y-143669857D01*
X138036714Y-143527000D01*
X138251000Y-143455571D01*
X138393857Y-143455571D01*
X138608142Y-143527000D01*
X138679571Y-143598428D01*
X139536714Y-144955571D02*
X139393857Y-144884142D01*
X139322428Y-144812714D01*
X139251000Y-144669857D01*
X139251000Y-144241285D01*
X139322428Y-144098428D01*
X139393857Y-144027000D01*
X139536714Y-143955571D01*
X139751000Y-143955571D01*
X139893857Y-144027000D01*
X139965285Y-144098428D01*
X140036714Y-144241285D01*
X140036714Y-144669857D01*
X139965285Y-144812714D01*
X139893857Y-144884142D01*
X139751000Y-144955571D01*
X139536714Y-144955571D01*
X140893857Y-144955571D02*
X140751000Y-144884142D01*
X140679571Y-144741285D01*
X140679571Y-143455571D01*
X142108142Y-144955571D02*
X142108142Y-143455571D01*
X142108142Y-144884142D02*
X141965285Y-144955571D01*
X141679571Y-144955571D01*
X141536714Y-144884142D01*
X141465285Y-144812714D01*
X141393857Y-144669857D01*
X141393857Y-144241285D01*
X141465285Y-144098428D01*
X141536714Y-144027000D01*
X141679571Y-143955571D01*
X141965285Y-143955571D01*
X142108142Y-144027000D01*
X143393857Y-144884142D02*
X143251000Y-144955571D01*
X142965285Y-144955571D01*
X142822428Y-144884142D01*
X142751000Y-144741285D01*
X142751000Y-144169857D01*
X142822428Y-144027000D01*
X142965285Y-143955571D01*
X143251000Y-143955571D01*
X143393857Y-144027000D01*
X143465285Y-144169857D01*
X143465285Y-144312714D01*
X142751000Y-144455571D01*
X144108142Y-144955571D02*
X144108142Y-143455571D01*
X144108142Y-144027000D02*
X144251000Y-143955571D01*
X144536714Y-143955571D01*
X144679571Y-144027000D01*
X144751000Y-144098428D01*
X144822428Y-144241285D01*
X144822428Y-144669857D01*
X144751000Y-144812714D01*
X144679571Y-144884142D01*
X144536714Y-144955571D01*
X144251000Y-144955571D01*
X144108142Y-144884142D01*
X146036714Y-144884142D02*
X145893857Y-144955571D01*
X145608142Y-144955571D01*
X145465285Y-144884142D01*
X145393857Y-144741285D01*
X145393857Y-144169857D01*
X145465285Y-144027000D01*
X145608142Y-143955571D01*
X145893857Y-143955571D01*
X146036714Y-144027000D01*
X146108142Y-144169857D01*
X146108142Y-144312714D01*
X145393857Y-144455571D01*
X146965285Y-144955571D02*
X146822428Y-144884142D01*
X146751000Y-144741285D01*
X146751000Y-143455571D01*
X147751000Y-144955571D02*
X147608142Y-144884142D01*
X147536714Y-144741285D01*
X147536714Y-143455571D01*
X148965285Y-144955571D02*
X148965285Y-144169857D01*
X148893857Y-144027000D01*
X148751000Y-143955571D01*
X148465285Y-143955571D01*
X148322428Y-144027000D01*
X148965285Y-144884142D02*
X148822428Y-144955571D01*
X148465285Y-144955571D01*
X148322428Y-144884142D01*
X148251000Y-144741285D01*
X148251000Y-144598428D01*
X148322428Y-144455571D01*
X148465285Y-144384142D01*
X148822428Y-144384142D01*
X148965285Y-144312714D01*
X131893857Y-146077000D02*
X131751000Y-146005571D01*
X131536714Y-146005571D01*
X131322428Y-146077000D01*
X131179571Y-146219857D01*
X131108142Y-146362714D01*
X131036714Y-146648428D01*
X131036714Y-146862714D01*
X131108142Y-147148428D01*
X131179571Y-147291285D01*
X131322428Y-147434142D01*
X131536714Y-147505571D01*
X131679571Y-147505571D01*
X131893857Y-147434142D01*
X131965285Y-147362714D01*
X131965285Y-146862714D01*
X131679571Y-146862714D01*
X132608142Y-147362714D02*
X132679571Y-147434142D01*
X132608142Y-147505571D01*
X132536714Y-147434142D01*
X132608142Y-147362714D01*
X132608142Y-147505571D01*
X134393857Y-147434142D02*
X134608142Y-147505571D01*
X134965285Y-147505571D01*
X135108142Y-147434142D01*
X135179571Y-147362714D01*
X135251000Y-147219857D01*
X135251000Y-147077000D01*
X135179571Y-146934142D01*
X135108142Y-146862714D01*
X134965285Y-146791285D01*
X134679571Y-146719857D01*
X134536714Y-146648428D01*
X134465285Y-146577000D01*
X134393857Y-146434142D01*
X134393857Y-146291285D01*
X134465285Y-146148428D01*
X134536714Y-146077000D01*
X134679571Y-146005571D01*
X135036714Y-146005571D01*
X135251000Y-146077000D01*
X135893857Y-147362714D02*
X135965285Y-147434142D01*
X135893857Y-147505571D01*
X135822428Y-147434142D01*
X135893857Y-147362714D01*
X135893857Y-147505571D01*
X138608142Y-147505571D02*
X138108142Y-146791285D01*
X137751000Y-147505571D02*
X137751000Y-146005571D01*
X138322428Y-146005571D01*
X138465285Y-146077000D01*
X138536714Y-146148428D01*
X138608142Y-146291285D01*
X138608142Y-146505571D01*
X138536714Y-146648428D01*
X138465285Y-146719857D01*
X138322428Y-146791285D01*
X137751000Y-146791285D01*
X139822428Y-147434142D02*
X139679571Y-147505571D01*
X139393857Y-147505571D01*
X139251000Y-147434142D01*
X139179571Y-147291285D01*
X139179571Y-146719857D01*
X139251000Y-146577000D01*
X139393857Y-146505571D01*
X139679571Y-146505571D01*
X139822428Y-146577000D01*
X139893857Y-146719857D01*
X139893857Y-146862714D01*
X139179571Y-147005571D01*
X140536714Y-147505571D02*
X140536714Y-146505571D01*
X140536714Y-146005571D02*
X140465285Y-146077000D01*
X140536714Y-146148428D01*
X140608142Y-146077000D01*
X140536714Y-146005571D01*
X140536714Y-146148428D01*
X141179571Y-147434142D02*
X141322428Y-147505571D01*
X141608142Y-147505571D01*
X141751000Y-147434142D01*
X141822428Y-147291285D01*
X141822428Y-147219857D01*
X141751000Y-147077000D01*
X141608142Y-147005571D01*
X141393857Y-147005571D01*
X141251000Y-146934142D01*
X141179571Y-146791285D01*
X141179571Y-146719857D01*
X141251000Y-146577000D01*
X141393857Y-146505571D01*
X141608142Y-146505571D01*
X141751000Y-146577000D01*
D11*
%TO.P,U2,1*%
%TO.N,Net-(R2-Pad2)*%
X154686000Y-119634000D03*
D12*
%TO.P,U2,3*%
%TO.N,+3V3*%
X157226000Y-119634000D03*
%TO.P,U2,2*%
%TO.N,GND*%
X155956000Y-119634000D03*
%TD*%
D13*
%TO.P,R3,1*%
%TO.N,Net-(R2-Pad2)*%
X130540000Y-120142000D03*
D14*
%TO.P,R3,2*%
%TO.N,GND*%
X145780000Y-120142000D03*
%TD*%
%TO.P,R2,2*%
%TO.N,Net-(R2-Pad2)*%
X130540000Y-124460000D03*
D13*
%TO.P,R2,1*%
%TO.N,+3V3*%
X145780000Y-124460000D03*
%TD*%
D14*
%TO.P,R1,2*%
%TO.N,Net-(BT1-Pad1)*%
X130540000Y-128778000D03*
D13*
%TO.P,R1,1*%
%TO.N,+3V3*%
X145780000Y-128778000D03*
%TD*%
D15*
%TO.P,A1,1*%
%TO.N,+3V3*%
X139440000Y-101470000D03*
D16*
%TO.P,A1,2*%
%TO.N,GND*%
X139440000Y-104010000D03*
%TO.P,A1,3*%
%TO.N,SCL*%
X139440000Y-106550000D03*
%TO.P,A1,4*%
%TO.N,SDA*%
X139440000Y-109090000D03*
%TO.P,A1,5*%
%TO.N,Net-(A1-Pad5)*%
X139440000Y-111630000D03*
%TO.P,A1,6*%
%TO.N,Net-(A1-Pad6)*%
X139440000Y-114170000D03*
%TD*%
D17*
%TO.P,BT1,1*%
%TO.N,Net-(BT1-Pad1)*%
X116360000Y-65880000D03*
%TO.P,BT1,2*%
%TO.N,GND*%
X116360000Y-144540000D03*
%TD*%
D18*
%TO.P,C1,1*%
%TO.N,+3V3*%
X157480000Y-111506000D03*
%TO.P,C1,2*%
%TO.N,GND*%
X154980000Y-111506000D03*
%TD*%
D13*
%TO.P,R4,1*%
%TO.N,RBF_switch*%
X145780000Y-133096000D03*
D14*
%TO.P,R4,2*%
%TO.N,GND*%
X130540000Y-133096000D03*
%TD*%
D19*
%TO.P,SW1,1*%
%TO.N,RBF_switch*%
X156972000Y-145288000D03*
D20*
%TO.P,SW1,2*%
%TO.N,+3V3*%
X156972000Y-140288000D03*
%TD*%
D21*
%TO.P,U1,2*%
%TO.N,Net-(U1-Pad2)*%
X156410000Y-86030000D03*
D22*
%TO.P,U1,1*%
%TO.N,Net-(U1-Pad1)*%
X156410000Y-88570000D03*
D21*
%TO.P,U1,3*%
%TO.N,Net-(U1-Pad3)*%
X156410000Y-83490000D03*
%TO.P,U1,4*%
%TO.N,Net-(U1-Pad4)*%
X156410000Y-80950000D03*
%TO.P,U1,5*%
%TO.N,Net-(U1-Pad5)*%
X156410000Y-78410000D03*
%TO.P,U1,6*%
%TO.N,Net-(U1-Pad6)*%
X156410000Y-75870000D03*
%TO.P,U1,7*%
%TO.N,Net-(U1-Pad7)*%
X156410000Y-73330000D03*
%TO.P,U1,8*%
%TO.N,+3V3*%
X156410000Y-70790000D03*
%TO.P,U1,9*%
%TO.N,Net-(U1-Pad9)*%
X133550000Y-70790000D03*
%TO.P,U1,10*%
%TO.N,GND*%
X133550000Y-73330000D03*
%TO.P,U1,11*%
%TO.N,RBF_switch*%
X133550000Y-75870000D03*
%TO.P,U1,12*%
%TO.N,Net-(U1-Pad12)*%
X133550000Y-78410000D03*
%TO.P,U1,13*%
%TO.N,SDA*%
X133550000Y-80950000D03*
%TO.P,U1,14*%
%TO.N,SCL*%
X133550000Y-83490000D03*
%TO.P,U1,15*%
%TO.N,Net-(U1-Pad15)*%
X133550000Y-86030000D03*
%TO.P,U1,16*%
%TO.N,Net-(U1-Pad16)*%
X133550000Y-88570000D03*
%TD*%
D23*
%TO.N,*%
X133000000Y-112500000D03*
D24*
%TO.N,GND*%
X124079000Y-147320000D03*
%TO.N,Net-(BT1-Pad1)*%
X103124000Y-68580000D03*
%TD*%
D25*
%TO.N,+3V3*%
X157480000Y-119380000D02*
X157226000Y-119634000D01*
X145780000Y-129096000D02*
X145780000Y-128778000D01*
D26*
%TO.N,GND*%
X118124000Y-147320000D02*
X123952000Y-147320000D01*
D27*
%TO.N,Net-(BT1-Pad1)*%
X116360000Y-65880000D02*
X113406000Y-68834000D01*
D26*
X113406000Y-68580000D02*
X103124000Y-68580000D01*
D27*
X103124000Y-68834000D02*
X103124000Y-68834000D01*
D25*
%TO.N,RBF_switch*%
X156972000Y-144288000D02*
X156972000Y-145288000D01*
%TD*%
D28*
%TO.N,GND*%
X106865857Y-66453000D02*
X103019513Y-66453000D01*
X102707035Y-66483776D01*
X102306094Y-66605401D01*
X101936585Y-66802907D01*
X101612707Y-67068707D01*
X101346907Y-67392585D01*
X101149401Y-67762094D01*
X101027776Y-68163035D01*
X100986709Y-68580000D01*
X101027776Y-68996965D01*
X101149401Y-69397906D01*
X101346907Y-69767415D01*
X101612707Y-70091293D01*
X101936585Y-70357093D01*
X102306094Y-70554599D01*
X102707035Y-70676224D01*
X103019513Y-70707000D01*
X113510487Y-70707000D01*
X113759720Y-70682453D01*
X119535000Y-70682453D01*
X119755931Y-70660693D01*
X119968371Y-70596250D01*
X120164157Y-70491600D01*
X120335765Y-70350765D01*
X120476600Y-70179157D01*
X120581250Y-69983371D01*
X120645693Y-69770931D01*
X120667453Y-69550000D01*
X120667453Y-69051303D01*
X122038000Y-69051303D01*
X122038000Y-69508697D01*
X122127233Y-69957302D01*
X122302270Y-70379879D01*
X122556385Y-70760189D01*
X122879811Y-71083615D01*
X123260121Y-71337730D01*
X123682698Y-71512767D01*
X124131303Y-71602000D01*
X124588697Y-71602000D01*
X125037302Y-71512767D01*
X125459879Y-71337730D01*
X125840189Y-71083615D01*
X126133804Y-70790000D01*
X131413677Y-70790000D01*
X131450883Y-71167758D01*
X131561071Y-71530999D01*
X131740006Y-71865763D01*
X131980813Y-72159187D01*
X132263331Y-72391044D01*
X132229361Y-72425575D01*
X132074449Y-72661579D01*
X131968556Y-72923270D01*
X131958096Y-72980961D01*
X132080085Y-73203000D01*
X133423000Y-73203000D01*
X133423000Y-73183000D01*
X133677000Y-73183000D01*
X133677000Y-73203000D01*
X135019915Y-73203000D01*
X135141904Y-72980961D01*
X135131444Y-72923270D01*
X135025551Y-72661579D01*
X134870639Y-72425575D01*
X134836669Y-72391044D01*
X135119187Y-72159187D01*
X135359994Y-71865763D01*
X135538929Y-71530999D01*
X135649117Y-71167758D01*
X135686323Y-70790000D01*
X154273677Y-70790000D01*
X154310883Y-71167758D01*
X154421071Y-71530999D01*
X154600006Y-71865763D01*
X154759412Y-72060000D01*
X154600006Y-72254237D01*
X154421071Y-72589001D01*
X154310883Y-72952242D01*
X154273677Y-73330000D01*
X154310883Y-73707758D01*
X154421071Y-74070999D01*
X154600006Y-74405763D01*
X154759412Y-74600000D01*
X154600006Y-74794237D01*
X154421071Y-75129001D01*
X154310883Y-75492242D01*
X154273677Y-75870000D01*
X154310883Y-76247758D01*
X154421071Y-76610999D01*
X154600006Y-76945763D01*
X154759412Y-77140000D01*
X154600006Y-77334237D01*
X154421071Y-77669001D01*
X154310883Y-78032242D01*
X154273677Y-78410000D01*
X154310883Y-78787758D01*
X154421071Y-79150999D01*
X154600006Y-79485763D01*
X154759412Y-79680000D01*
X154600006Y-79874237D01*
X154421071Y-80209001D01*
X154310883Y-80572242D01*
X154273677Y-80950000D01*
X154310883Y-81327758D01*
X154421071Y-81690999D01*
X154600006Y-82025763D01*
X154759412Y-82220000D01*
X154600006Y-82414237D01*
X154421071Y-82749001D01*
X154310883Y-83112242D01*
X154273677Y-83490000D01*
X154310883Y-83867758D01*
X154421071Y-84230999D01*
X154600006Y-84565763D01*
X154759412Y-84760000D01*
X154600006Y-84954237D01*
X154421071Y-85289001D01*
X154310883Y-85652242D01*
X154273677Y-86030000D01*
X154310883Y-86407758D01*
X154421071Y-86770999D01*
X154494715Y-86908778D01*
X154468400Y-86940843D01*
X154363750Y-87136629D01*
X154299307Y-87349069D01*
X154277547Y-87570000D01*
X154277547Y-89570000D01*
X154299307Y-89790931D01*
X154363750Y-90003371D01*
X154468400Y-90199157D01*
X154609235Y-90370765D01*
X154780843Y-90511600D01*
X154976629Y-90616250D01*
X155189069Y-90680693D01*
X155410000Y-90702453D01*
X157410000Y-90702453D01*
X157630931Y-90680693D01*
X157843371Y-90616250D01*
X158039157Y-90511600D01*
X158210765Y-90370765D01*
X158351600Y-90199157D01*
X158456250Y-90003371D01*
X158520693Y-89790931D01*
X158542453Y-89570000D01*
X158542453Y-87570000D01*
X158520693Y-87349069D01*
X158456250Y-87136629D01*
X158351600Y-86940843D01*
X158325285Y-86908778D01*
X158398929Y-86770999D01*
X158509117Y-86407758D01*
X158546323Y-86030000D01*
X158509117Y-85652242D01*
X158398929Y-85289001D01*
X158219994Y-84954237D01*
X158060588Y-84760000D01*
X158219994Y-84565763D01*
X158398929Y-84230999D01*
X158509117Y-83867758D01*
X158546323Y-83490000D01*
X158509117Y-83112242D01*
X158398929Y-82749001D01*
X158219994Y-82414237D01*
X158060588Y-82220000D01*
X158219994Y-82025763D01*
X158398929Y-81690999D01*
X158509117Y-81327758D01*
X158546323Y-80950000D01*
X158509117Y-80572242D01*
X158398929Y-80209001D01*
X158219994Y-79874237D01*
X158060588Y-79680000D01*
X158219994Y-79485763D01*
X158398929Y-79150999D01*
X158509117Y-78787758D01*
X158546323Y-78410000D01*
X158509117Y-78032242D01*
X158398929Y-77669001D01*
X158219994Y-77334237D01*
X158060588Y-77140000D01*
X158219994Y-76945763D01*
X158398929Y-76610999D01*
X158509117Y-76247758D01*
X158546323Y-75870000D01*
X158509117Y-75492242D01*
X158398929Y-75129001D01*
X158219994Y-74794237D01*
X158060588Y-74600000D01*
X158219994Y-74405763D01*
X158398929Y-74070999D01*
X158509117Y-73707758D01*
X158546323Y-73330000D01*
X158509117Y-72952242D01*
X158398929Y-72589001D01*
X158219994Y-72254237D01*
X158060588Y-72060000D01*
X158219994Y-71865763D01*
X158398929Y-71530999D01*
X158509117Y-71167758D01*
X158546323Y-70790000D01*
X158509117Y-70412242D01*
X158398929Y-70049001D01*
X158219994Y-69714237D01*
X157979187Y-69420813D01*
X157685763Y-69180006D01*
X157350999Y-69001071D01*
X156987758Y-68890883D01*
X156704658Y-68863000D01*
X156115342Y-68863000D01*
X155832242Y-68890883D01*
X155469001Y-69001071D01*
X155134237Y-69180006D01*
X154840813Y-69420813D01*
X154600006Y-69714237D01*
X154421071Y-70049001D01*
X154310883Y-70412242D01*
X154273677Y-70790000D01*
X135686323Y-70790000D01*
X135649117Y-70412242D01*
X135538929Y-70049001D01*
X135359994Y-69714237D01*
X135119187Y-69420813D01*
X134825763Y-69180006D01*
X134490999Y-69001071D01*
X134127758Y-68890883D01*
X133844658Y-68863000D01*
X133255342Y-68863000D01*
X132972242Y-68890883D01*
X132609001Y-69001071D01*
X132274237Y-69180006D01*
X131980813Y-69420813D01*
X131740006Y-69714237D01*
X131561071Y-70049001D01*
X131450883Y-70412242D01*
X131413677Y-70790000D01*
X126133804Y-70790000D01*
X126163615Y-70760189D01*
X126417730Y-70379879D01*
X126592767Y-69957302D01*
X126682000Y-69508697D01*
X126682000Y-69051303D01*
X126592767Y-68602698D01*
X126417730Y-68180121D01*
X126163615Y-67799811D01*
X125840189Y-67476385D01*
X125459879Y-67222270D01*
X125037302Y-67047233D01*
X124588697Y-66958000D01*
X124131303Y-66958000D01*
X123682698Y-67047233D01*
X123260121Y-67222270D01*
X122879811Y-67476385D01*
X122556385Y-67799811D01*
X122302270Y-68180121D01*
X122127233Y-68602698D01*
X122038000Y-69051303D01*
X120667453Y-69051303D01*
X120667453Y-62210000D01*
X120645693Y-61989069D01*
X120581250Y-61776629D01*
X120476600Y-61580843D01*
X120335765Y-61409235D01*
X120164157Y-61268400D01*
X119968371Y-61163750D01*
X119755931Y-61099307D01*
X119535000Y-61077547D01*
X113185000Y-61077547D01*
X113134143Y-61082556D01*
X113134143Y-60710000D01*
X165290001Y-60710000D01*
X165290000Y-149290000D01*
X150554429Y-149290000D01*
X150554429Y-143988000D01*
X154539547Y-143988000D01*
X154539547Y-146588000D01*
X154561307Y-146808931D01*
X154625750Y-147021371D01*
X154730400Y-147217157D01*
X154871235Y-147388765D01*
X155042843Y-147529600D01*
X155238629Y-147634250D01*
X155451069Y-147698693D01*
X155672000Y-147720453D01*
X158272000Y-147720453D01*
X158492931Y-147698693D01*
X158705371Y-147634250D01*
X158901157Y-147529600D01*
X159072765Y-147388765D01*
X159213600Y-147217157D01*
X159318250Y-147021371D01*
X159382693Y-146808931D01*
X159404453Y-146588000D01*
X159404453Y-143988000D01*
X159382693Y-143767069D01*
X159318250Y-143554629D01*
X159213600Y-143358843D01*
X159072765Y-143187235D01*
X158901157Y-143046400D01*
X158705371Y-142941750D01*
X158492931Y-142877307D01*
X158272000Y-142855547D01*
X157510187Y-142855547D01*
X157271343Y-142783095D01*
X156972000Y-142753612D01*
X156672656Y-142783095D01*
X156433812Y-142855547D01*
X155672000Y-142855547D01*
X155451069Y-142877307D01*
X155238629Y-142941750D01*
X155042843Y-143046400D01*
X154871235Y-143187235D01*
X154730400Y-143358843D01*
X154625750Y-143554629D01*
X154561307Y-143767069D01*
X154539547Y-143988000D01*
X150554429Y-143988000D01*
X150554429Y-140048961D01*
X154545000Y-140048961D01*
X154545000Y-140527039D01*
X154638268Y-140995930D01*
X154821221Y-141437615D01*
X155086826Y-141835122D01*
X155424878Y-142173174D01*
X155822385Y-142438779D01*
X156264070Y-142621732D01*
X156732961Y-142715000D01*
X157211039Y-142715000D01*
X157679930Y-142621732D01*
X158121615Y-142438779D01*
X158519122Y-142173174D01*
X158857174Y-141835122D01*
X159122779Y-141437615D01*
X159305732Y-140995930D01*
X159399000Y-140527039D01*
X159399000Y-140048961D01*
X159305732Y-139580070D01*
X159122779Y-139138385D01*
X158857174Y-138740878D01*
X158519122Y-138402826D01*
X158121615Y-138137221D01*
X157679930Y-137954268D01*
X157211039Y-137861000D01*
X156732961Y-137861000D01*
X156264070Y-137954268D01*
X155822385Y-138137221D01*
X155424878Y-138402826D01*
X155086826Y-138740878D01*
X154821221Y-139138385D01*
X154638268Y-139580070D01*
X154545000Y-140048961D01*
X150554429Y-140048961D01*
X150554429Y-136895000D01*
X129429000Y-136895000D01*
X129429000Y-149290000D01*
X113094143Y-149290000D01*
X113094143Y-148839124D01*
X113185000Y-148848072D01*
X116074250Y-148845000D01*
X116233000Y-148686250D01*
X116233000Y-144667000D01*
X116487000Y-144667000D01*
X116487000Y-148686250D01*
X116645750Y-148845000D01*
X119535000Y-148848072D01*
X119659482Y-148835812D01*
X119779180Y-148799502D01*
X119889494Y-148740537D01*
X119986185Y-148661185D01*
X120065537Y-148564494D01*
X120124502Y-148454180D01*
X120160812Y-148334482D01*
X120173072Y-148210000D01*
X120170000Y-144825750D01*
X120011250Y-144667000D01*
X116487000Y-144667000D01*
X116233000Y-144667000D01*
X116213000Y-144667000D01*
X116213000Y-144413000D01*
X116233000Y-144413000D01*
X116233000Y-140393750D01*
X116487000Y-140393750D01*
X116487000Y-144413000D01*
X120011250Y-144413000D01*
X120170000Y-144254250D01*
X120173072Y-140870000D01*
X120160812Y-140745518D01*
X120124502Y-140625820D01*
X120065537Y-140515506D01*
X119986185Y-140418815D01*
X119889494Y-140339463D01*
X119779180Y-140280498D01*
X119659482Y-140244188D01*
X119535000Y-140231928D01*
X116645750Y-140235000D01*
X116487000Y-140393750D01*
X116233000Y-140393750D01*
X116074250Y-140235000D01*
X113185000Y-140231928D01*
X113060518Y-140244188D01*
X112940820Y-140280498D01*
X112830506Y-140339463D01*
X112733815Y-140418815D01*
X112654463Y-140515506D01*
X112595498Y-140625820D01*
X112559188Y-140745518D01*
X112546928Y-140870000D01*
X112548696Y-142818000D01*
X106825857Y-142818000D01*
X106825857Y-149290000D01*
X100710000Y-149290000D01*
X100710000Y-132529102D01*
X121508000Y-132529102D01*
X121508000Y-133090898D01*
X121617600Y-133641898D01*
X121832590Y-134160929D01*
X122144707Y-134628044D01*
X122541956Y-135025293D01*
X123009071Y-135337410D01*
X123528102Y-135552400D01*
X124079102Y-135662000D01*
X124640898Y-135662000D01*
X125191898Y-135552400D01*
X125710929Y-135337410D01*
X126178044Y-135025293D01*
X126575293Y-134628044D01*
X126887410Y-134160929D01*
X127102400Y-133641898D01*
X127141557Y-133445039D01*
X129148096Y-133445039D01*
X129188754Y-133579087D01*
X129308963Y-133833420D01*
X129476481Y-134059414D01*
X129684869Y-134248385D01*
X129926119Y-134393070D01*
X130190960Y-134487909D01*
X130413000Y-134366624D01*
X130413000Y-133223000D01*
X130667000Y-133223000D01*
X130667000Y-134366624D01*
X130889040Y-134487909D01*
X131153881Y-134393070D01*
X131395131Y-134248385D01*
X131603519Y-134059414D01*
X131771037Y-133833420D01*
X131891246Y-133579087D01*
X131931904Y-133445039D01*
X131809915Y-133223000D01*
X130667000Y-133223000D01*
X130413000Y-133223000D01*
X129270085Y-133223000D01*
X129148096Y-133445039D01*
X127141557Y-133445039D01*
X127212000Y-133090898D01*
X127212000Y-132746961D01*
X129148096Y-132746961D01*
X129270085Y-132969000D01*
X130413000Y-132969000D01*
X130413000Y-131825376D01*
X130667000Y-131825376D01*
X130667000Y-132969000D01*
X131809915Y-132969000D01*
X131844413Y-132906207D01*
X143853000Y-132906207D01*
X143853000Y-133285793D01*
X143927053Y-133658085D01*
X144072315Y-134008777D01*
X144283201Y-134324391D01*
X144551609Y-134592799D01*
X144867223Y-134803685D01*
X145217915Y-134948947D01*
X145590207Y-135023000D01*
X145969793Y-135023000D01*
X146342085Y-134948947D01*
X146692777Y-134803685D01*
X147008391Y-134592799D01*
X147276799Y-134324391D01*
X147487685Y-134008777D01*
X147632947Y-133658085D01*
X147707000Y-133285793D01*
X147707000Y-132906207D01*
X147632947Y-132533915D01*
X147487685Y-132183223D01*
X147276799Y-131867609D01*
X147008391Y-131599201D01*
X146692777Y-131388315D01*
X146342085Y-131243053D01*
X145969793Y-131169000D01*
X145590207Y-131169000D01*
X145217915Y-131243053D01*
X144867223Y-131388315D01*
X144551609Y-131599201D01*
X144283201Y-131867609D01*
X144072315Y-132183223D01*
X143927053Y-132533915D01*
X143853000Y-132906207D01*
X131844413Y-132906207D01*
X131931904Y-132746961D01*
X131891246Y-132612913D01*
X131771037Y-132358580D01*
X131603519Y-132132586D01*
X131395131Y-131943615D01*
X131153881Y-131798930D01*
X130889040Y-131704091D01*
X130667000Y-131825376D01*
X130413000Y-131825376D01*
X130190960Y-131704091D01*
X129926119Y-131798930D01*
X129684869Y-131943615D01*
X129476481Y-132132586D01*
X129308963Y-132358580D01*
X129188754Y-132612913D01*
X129148096Y-132746961D01*
X127212000Y-132746961D01*
X127212000Y-132529102D01*
X127102400Y-131978102D01*
X126887410Y-131459071D01*
X126575293Y-130991956D01*
X126178044Y-130594707D01*
X125710929Y-130282590D01*
X125191898Y-130067600D01*
X124640898Y-129958000D01*
X124079102Y-129958000D01*
X123528102Y-130067600D01*
X123009071Y-130282590D01*
X122541956Y-130594707D01*
X122144707Y-130991956D01*
X121832590Y-131459071D01*
X121617600Y-131978102D01*
X121508000Y-132529102D01*
X100710000Y-132529102D01*
X100710000Y-128588207D01*
X128613000Y-128588207D01*
X128613000Y-128967793D01*
X128687053Y-129340085D01*
X128832315Y-129690777D01*
X129043201Y-130006391D01*
X129311609Y-130274799D01*
X129627223Y-130485685D01*
X129977915Y-130630947D01*
X130350207Y-130705000D01*
X130729793Y-130705000D01*
X131102085Y-130630947D01*
X131452777Y-130485685D01*
X131768391Y-130274799D01*
X132036799Y-130006391D01*
X132247685Y-129690777D01*
X132392947Y-129340085D01*
X132467000Y-128967793D01*
X132467000Y-128588207D01*
X143853000Y-128588207D01*
X143853000Y-128967793D01*
X143927053Y-129340085D01*
X144072315Y-129690777D01*
X144283201Y-130006391D01*
X144551609Y-130274799D01*
X144867223Y-130485685D01*
X145217915Y-130630947D01*
X145590207Y-130705000D01*
X145969793Y-130705000D01*
X146342085Y-130630947D01*
X146692777Y-130485685D01*
X147008391Y-130274799D01*
X147276799Y-130006391D01*
X147487685Y-129690777D01*
X147632947Y-129340085D01*
X147707000Y-128967793D01*
X147707000Y-128588207D01*
X147632947Y-128215915D01*
X147487685Y-127865223D01*
X147276799Y-127549609D01*
X147008391Y-127281201D01*
X146692777Y-127070315D01*
X146342085Y-126925053D01*
X145969793Y-126851000D01*
X145590207Y-126851000D01*
X145217915Y-126925053D01*
X144867223Y-127070315D01*
X144551609Y-127281201D01*
X144283201Y-127549609D01*
X144072315Y-127865223D01*
X143927053Y-128215915D01*
X143853000Y-128588207D01*
X132467000Y-128588207D01*
X132392947Y-128215915D01*
X132247685Y-127865223D01*
X132036799Y-127549609D01*
X131768391Y-127281201D01*
X131452777Y-127070315D01*
X131102085Y-126925053D01*
X130729793Y-126851000D01*
X130350207Y-126851000D01*
X129977915Y-126925053D01*
X129627223Y-127070315D01*
X129311609Y-127281201D01*
X129043201Y-127549609D01*
X128832315Y-127865223D01*
X128687053Y-128215915D01*
X128613000Y-128588207D01*
X100710000Y-128588207D01*
X100710000Y-124270207D01*
X128613000Y-124270207D01*
X128613000Y-124649793D01*
X128687053Y-125022085D01*
X128832315Y-125372777D01*
X129043201Y-125688391D01*
X129311609Y-125956799D01*
X129627223Y-126167685D01*
X129977915Y-126312947D01*
X130350207Y-126387000D01*
X130729793Y-126387000D01*
X131102085Y-126312947D01*
X131452777Y-126167685D01*
X131768391Y-125956799D01*
X132036799Y-125688391D01*
X132247685Y-125372777D01*
X132392947Y-125022085D01*
X132467000Y-124649793D01*
X132467000Y-124270207D01*
X143853000Y-124270207D01*
X143853000Y-124649793D01*
X143927053Y-125022085D01*
X144072315Y-125372777D01*
X144283201Y-125688391D01*
X144551609Y-125956799D01*
X144867223Y-126167685D01*
X145217915Y-126312947D01*
X145590207Y-126387000D01*
X145969793Y-126387000D01*
X146342085Y-126312947D01*
X146692777Y-126167685D01*
X147008391Y-125956799D01*
X147276799Y-125688391D01*
X147487685Y-125372777D01*
X147632947Y-125022085D01*
X147707000Y-124649793D01*
X147707000Y-124270207D01*
X147632947Y-123897915D01*
X147487685Y-123547223D01*
X147276799Y-123231609D01*
X147008391Y-122963201D01*
X146692777Y-122752315D01*
X146342085Y-122607053D01*
X145969793Y-122533000D01*
X145590207Y-122533000D01*
X145217915Y-122607053D01*
X144867223Y-122752315D01*
X144551609Y-122963201D01*
X144283201Y-123231609D01*
X144072315Y-123547223D01*
X143927053Y-123897915D01*
X143853000Y-124270207D01*
X132467000Y-124270207D01*
X132392947Y-123897915D01*
X132247685Y-123547223D01*
X132036799Y-123231609D01*
X131768391Y-122963201D01*
X131452777Y-122752315D01*
X131102085Y-122607053D01*
X130729793Y-122533000D01*
X130350207Y-122533000D01*
X129977915Y-122607053D01*
X129627223Y-122752315D01*
X129311609Y-122963201D01*
X129043201Y-123231609D01*
X128832315Y-123547223D01*
X128687053Y-123897915D01*
X128613000Y-124270207D01*
X100710000Y-124270207D01*
X100710000Y-119952207D01*
X128613000Y-119952207D01*
X128613000Y-120331793D01*
X128687053Y-120704085D01*
X128832315Y-121054777D01*
X129043201Y-121370391D01*
X129311609Y-121638799D01*
X129627223Y-121849685D01*
X129977915Y-121994947D01*
X130350207Y-122069000D01*
X130729793Y-122069000D01*
X131102085Y-121994947D01*
X131452777Y-121849685D01*
X131768391Y-121638799D01*
X132036799Y-121370391D01*
X132247685Y-121054777D01*
X132392947Y-120704085D01*
X132435324Y-120491039D01*
X144388096Y-120491039D01*
X144428754Y-120625087D01*
X144548963Y-120879420D01*
X144716481Y-121105414D01*
X144924869Y-121294385D01*
X145166119Y-121439070D01*
X145430960Y-121533909D01*
X145653000Y-121412624D01*
X145653000Y-120269000D01*
X145907000Y-120269000D01*
X145907000Y-121412624D01*
X146129040Y-121533909D01*
X146393881Y-121439070D01*
X146635131Y-121294385D01*
X146843519Y-121105414D01*
X147011037Y-120879420D01*
X147131246Y-120625087D01*
X147171904Y-120491039D01*
X147049915Y-120269000D01*
X145907000Y-120269000D01*
X145653000Y-120269000D01*
X144510085Y-120269000D01*
X144388096Y-120491039D01*
X132435324Y-120491039D01*
X132467000Y-120331793D01*
X132467000Y-119952207D01*
X132435325Y-119792961D01*
X144388096Y-119792961D01*
X144510085Y-120015000D01*
X145653000Y-120015000D01*
X145653000Y-118871376D01*
X145907000Y-118871376D01*
X145907000Y-120015000D01*
X147049915Y-120015000D01*
X147171904Y-119792961D01*
X147131246Y-119658913D01*
X147011037Y-119404580D01*
X146843519Y-119178586D01*
X146635131Y-118989615D01*
X146459027Y-118884000D01*
X153028547Y-118884000D01*
X153028547Y-120384000D01*
X153050307Y-120604931D01*
X153114750Y-120817371D01*
X153219400Y-121013157D01*
X153360235Y-121184765D01*
X153531843Y-121325600D01*
X153727629Y-121430250D01*
X153940069Y-121494693D01*
X154161000Y-121516453D01*
X155211000Y-121516453D01*
X155431931Y-121494693D01*
X155644371Y-121430250D01*
X155840157Y-121325600D01*
X156011765Y-121184765D01*
X156102568Y-121074121D01*
X156303758Y-121239234D01*
X156590749Y-121392634D01*
X156902152Y-121487097D01*
X157226000Y-121518993D01*
X157549849Y-121487097D01*
X157861252Y-121392634D01*
X158148243Y-121239234D01*
X158399792Y-121032792D01*
X158606234Y-120781243D01*
X158759634Y-120494252D01*
X158854097Y-120182848D01*
X158870312Y-120018217D01*
X158897589Y-119967185D01*
X158984904Y-119679344D01*
X159014387Y-119380001D01*
X158984904Y-119080656D01*
X158897589Y-118792816D01*
X158755796Y-118527540D01*
X158564975Y-118295025D01*
X158332460Y-118104204D01*
X158067184Y-117962411D01*
X157967565Y-117932192D01*
X157861251Y-117875366D01*
X157549848Y-117780903D01*
X157226000Y-117749007D01*
X156902151Y-117780903D01*
X156590748Y-117875366D01*
X156303757Y-118028766D01*
X156102568Y-118193879D01*
X156011765Y-118083235D01*
X155840157Y-117942400D01*
X155644371Y-117837750D01*
X155431931Y-117773307D01*
X155211000Y-117751547D01*
X154161000Y-117751547D01*
X153940069Y-117773307D01*
X153727629Y-117837750D01*
X153531843Y-117942400D01*
X153360235Y-118083235D01*
X153219400Y-118254843D01*
X153114750Y-118450629D01*
X153050307Y-118663069D01*
X153028547Y-118884000D01*
X146459027Y-118884000D01*
X146393881Y-118844930D01*
X146129040Y-118750091D01*
X145907000Y-118871376D01*
X145653000Y-118871376D01*
X145430960Y-118750091D01*
X145166119Y-118844930D01*
X144924869Y-118989615D01*
X144716481Y-119178586D01*
X144548963Y-119404580D01*
X144428754Y-119658913D01*
X144388096Y-119792961D01*
X132435325Y-119792961D01*
X132392947Y-119579915D01*
X132247685Y-119229223D01*
X132036799Y-118913609D01*
X131768391Y-118645201D01*
X131452777Y-118434315D01*
X131102085Y-118289053D01*
X130729793Y-118215000D01*
X130350207Y-118215000D01*
X129977915Y-118289053D01*
X129627223Y-118434315D01*
X129311609Y-118645201D01*
X129043201Y-118913609D01*
X128832315Y-119229223D01*
X128687053Y-119579915D01*
X128613000Y-119952207D01*
X100710000Y-119952207D01*
X100710000Y-112192017D01*
X129873000Y-112192017D01*
X129873000Y-112807983D01*
X129993169Y-113412112D01*
X130228889Y-113981190D01*
X130571101Y-114493346D01*
X131006654Y-114928899D01*
X131518810Y-115271111D01*
X132087888Y-115506831D01*
X132692017Y-115627000D01*
X133307983Y-115627000D01*
X133912112Y-115506831D01*
X134481190Y-115271111D01*
X134993346Y-114928899D01*
X135428899Y-114493346D01*
X135771111Y-113981190D01*
X136006831Y-113412112D01*
X136127000Y-112807983D01*
X136127000Y-112192017D01*
X136006831Y-111587888D01*
X135771111Y-111018810D01*
X135428899Y-110506654D01*
X134993346Y-110071101D01*
X134481190Y-109728889D01*
X133912112Y-109493169D01*
X133307983Y-109373000D01*
X132692017Y-109373000D01*
X132087888Y-109493169D01*
X131518810Y-109728889D01*
X131006654Y-110071101D01*
X130571101Y-110506654D01*
X130228889Y-111018810D01*
X129993169Y-111587888D01*
X129873000Y-112192017D01*
X100710000Y-112192017D01*
X100710000Y-100708000D01*
X137545547Y-100708000D01*
X137545547Y-102232000D01*
X137567307Y-102452931D01*
X137631750Y-102665371D01*
X137736400Y-102861157D01*
X137877235Y-103032765D01*
X138048843Y-103173600D01*
X138244629Y-103278250D01*
X138261631Y-103283408D01*
X138234344Y-103291020D01*
X138117244Y-103540048D01*
X138050977Y-103807135D01*
X138038090Y-104082017D01*
X138079078Y-104354133D01*
X138172364Y-104613023D01*
X138234344Y-104728980D01*
X138474433Y-104795959D01*
X138358023Y-104912369D01*
X138411197Y-104965543D01*
X138235833Y-105082718D01*
X137972718Y-105345833D01*
X137765990Y-105655223D01*
X137623593Y-105998999D01*
X137551000Y-106363950D01*
X137551000Y-106736050D01*
X137623593Y-107101001D01*
X137765990Y-107444777D01*
X137972718Y-107754167D01*
X138038551Y-107820000D01*
X137972718Y-107885833D01*
X137765990Y-108195223D01*
X137623593Y-108538999D01*
X137551000Y-108903950D01*
X137551000Y-109276050D01*
X137623593Y-109641001D01*
X137765990Y-109984777D01*
X137972718Y-110294167D01*
X138038551Y-110360000D01*
X137972718Y-110425833D01*
X137765990Y-110735223D01*
X137623593Y-111078999D01*
X137551000Y-111443950D01*
X137551000Y-111816050D01*
X137623593Y-112181001D01*
X137765990Y-112524777D01*
X137972718Y-112834167D01*
X138038551Y-112900000D01*
X137972718Y-112965833D01*
X137765990Y-113275223D01*
X137623593Y-113618999D01*
X137551000Y-113983950D01*
X137551000Y-114356050D01*
X137623593Y-114721001D01*
X137765990Y-115064777D01*
X137972718Y-115374167D01*
X138235833Y-115637282D01*
X138545223Y-115844010D01*
X138888999Y-115986407D01*
X139253950Y-116059000D01*
X139626050Y-116059000D01*
X139991001Y-115986407D01*
X140334777Y-115844010D01*
X140644167Y-115637282D01*
X140907282Y-115374167D01*
X141114010Y-115064777D01*
X141256407Y-114721001D01*
X141329000Y-114356050D01*
X141329000Y-113983950D01*
X141256407Y-113618999D01*
X141114010Y-113275223D01*
X140907282Y-112965833D01*
X140841449Y-112900000D01*
X140907282Y-112834167D01*
X141114010Y-112524777D01*
X141256407Y-112181001D01*
X141329000Y-111816050D01*
X141329000Y-111580473D01*
X153640610Y-111580473D01*
X153680875Y-111840344D01*
X153771065Y-112087366D01*
X153824963Y-112188203D01*
X154058731Y-112247664D01*
X154800395Y-111506000D01*
X154058731Y-110764336D01*
X153824963Y-110823797D01*
X153714066Y-111062242D01*
X153651817Y-111317740D01*
X153640610Y-111580473D01*
X141329000Y-111580473D01*
X141329000Y-111443950D01*
X141256407Y-111078999D01*
X141114010Y-110735223D01*
X141013455Y-110584731D01*
X154238336Y-110584731D01*
X154980000Y-111326395D01*
X154994143Y-111312253D01*
X155173748Y-111491858D01*
X155159605Y-111506000D01*
X155173748Y-111520143D01*
X154994143Y-111699748D01*
X154980000Y-111685605D01*
X154238336Y-112427269D01*
X154297797Y-112661037D01*
X154536242Y-112771934D01*
X154791740Y-112834183D01*
X155054473Y-112845390D01*
X155314344Y-112805125D01*
X155561366Y-112714935D01*
X155662203Y-112661037D01*
X155721663Y-112427271D01*
X155838317Y-112543925D01*
X155920975Y-112461267D01*
X156060876Y-112670645D01*
X156315355Y-112925124D01*
X156614591Y-113125066D01*
X156947084Y-113262789D01*
X157300056Y-113333000D01*
X157659944Y-113333000D01*
X158012916Y-113262789D01*
X158345409Y-113125066D01*
X158644645Y-112925124D01*
X158899124Y-112670645D01*
X159099066Y-112371409D01*
X159236789Y-112038916D01*
X159307000Y-111685944D01*
X159307000Y-111326056D01*
X159236789Y-110973084D01*
X159099066Y-110640591D01*
X158899124Y-110341355D01*
X158644645Y-110086876D01*
X158345409Y-109886934D01*
X158012916Y-109749211D01*
X157659944Y-109679000D01*
X157300056Y-109679000D01*
X156947084Y-109749211D01*
X156614591Y-109886934D01*
X156315355Y-110086876D01*
X156060876Y-110341355D01*
X155920975Y-110550733D01*
X155838317Y-110468075D01*
X155721663Y-110584729D01*
X155662203Y-110350963D01*
X155423758Y-110240066D01*
X155168260Y-110177817D01*
X154905527Y-110166610D01*
X154645656Y-110206875D01*
X154398634Y-110297065D01*
X154297797Y-110350963D01*
X154238336Y-110584731D01*
X141013455Y-110584731D01*
X140907282Y-110425833D01*
X140841449Y-110360000D01*
X140907282Y-110294167D01*
X141114010Y-109984777D01*
X141256407Y-109641001D01*
X141329000Y-109276050D01*
X141329000Y-108903950D01*
X141256407Y-108538999D01*
X141114010Y-108195223D01*
X140907282Y-107885833D01*
X140841449Y-107820000D01*
X140907282Y-107754167D01*
X141114010Y-107444777D01*
X141256407Y-107101001D01*
X141329000Y-106736050D01*
X141329000Y-106363950D01*
X141256407Y-105998999D01*
X141114010Y-105655223D01*
X140907282Y-105345833D01*
X140644167Y-105082718D01*
X140468803Y-104965543D01*
X140521977Y-104912369D01*
X140405567Y-104795959D01*
X140645656Y-104728980D01*
X140762756Y-104479952D01*
X140829023Y-104212865D01*
X140841910Y-103937983D01*
X140800922Y-103665867D01*
X140707636Y-103406977D01*
X140645656Y-103291020D01*
X140618369Y-103283408D01*
X140635371Y-103278250D01*
X140831157Y-103173600D01*
X141002765Y-103032765D01*
X141143600Y-102861157D01*
X141248250Y-102665371D01*
X141312693Y-102452931D01*
X141334453Y-102232000D01*
X141334453Y-100708000D01*
X141312693Y-100487069D01*
X141248250Y-100274629D01*
X141143600Y-100078843D01*
X141002765Y-99907235D01*
X140831157Y-99766400D01*
X140635371Y-99661750D01*
X140422931Y-99597307D01*
X140202000Y-99575547D01*
X138678000Y-99575547D01*
X138457069Y-99597307D01*
X138244629Y-99661750D01*
X138048843Y-99766400D01*
X137877235Y-99907235D01*
X137736400Y-100078843D01*
X137631750Y-100274629D01*
X137567307Y-100487069D01*
X137545547Y-100708000D01*
X100710000Y-100708000D01*
X100710000Y-77329102D01*
X105508000Y-77329102D01*
X105508000Y-77890898D01*
X105617600Y-78441898D01*
X105832590Y-78960929D01*
X106144707Y-79428044D01*
X106541956Y-79825293D01*
X107009071Y-80137410D01*
X107528102Y-80352400D01*
X108079102Y-80462000D01*
X108640898Y-80462000D01*
X109191898Y-80352400D01*
X109710929Y-80137410D01*
X110178044Y-79825293D01*
X110575293Y-79428044D01*
X110887410Y-78960929D01*
X111102400Y-78441898D01*
X111212000Y-77890898D01*
X111212000Y-77329102D01*
X111102400Y-76778102D01*
X110887410Y-76259071D01*
X110627441Y-75870000D01*
X131413677Y-75870000D01*
X131450883Y-76247758D01*
X131561071Y-76610999D01*
X131740006Y-76945763D01*
X131899412Y-77140000D01*
X131740006Y-77334237D01*
X131561071Y-77669001D01*
X131450883Y-78032242D01*
X131413677Y-78410000D01*
X131450883Y-78787758D01*
X131561071Y-79150999D01*
X131740006Y-79485763D01*
X131899412Y-79680000D01*
X131740006Y-79874237D01*
X131561071Y-80209001D01*
X131450883Y-80572242D01*
X131413677Y-80950000D01*
X131450883Y-81327758D01*
X131561071Y-81690999D01*
X131740006Y-82025763D01*
X131899412Y-82220000D01*
X131740006Y-82414237D01*
X131561071Y-82749001D01*
X131450883Y-83112242D01*
X131413677Y-83490000D01*
X131450883Y-83867758D01*
X131561071Y-84230999D01*
X131740006Y-84565763D01*
X131899412Y-84760000D01*
X131740006Y-84954237D01*
X131561071Y-85289001D01*
X131450883Y-85652242D01*
X131413677Y-86030000D01*
X131450883Y-86407758D01*
X131561071Y-86770999D01*
X131740006Y-87105763D01*
X131899412Y-87300000D01*
X131740006Y-87494237D01*
X131561071Y-87829001D01*
X131450883Y-88192242D01*
X131413677Y-88570000D01*
X131450883Y-88947758D01*
X131561071Y-89310999D01*
X131740006Y-89645763D01*
X131980813Y-89939187D01*
X132274237Y-90179994D01*
X132609001Y-90358929D01*
X132972242Y-90469117D01*
X133255342Y-90497000D01*
X133844658Y-90497000D01*
X134127758Y-90469117D01*
X134490999Y-90358929D01*
X134825763Y-90179994D01*
X135119187Y-89939187D01*
X135359994Y-89645763D01*
X135538929Y-89310999D01*
X135649117Y-88947758D01*
X135686323Y-88570000D01*
X135649117Y-88192242D01*
X135538929Y-87829001D01*
X135359994Y-87494237D01*
X135200588Y-87300000D01*
X135359994Y-87105763D01*
X135538929Y-86770999D01*
X135649117Y-86407758D01*
X135686323Y-86030000D01*
X135649117Y-85652242D01*
X135538929Y-85289001D01*
X135359994Y-84954237D01*
X135200588Y-84760000D01*
X135359994Y-84565763D01*
X135538929Y-84230999D01*
X135649117Y-83867758D01*
X135686323Y-83490000D01*
X135649117Y-83112242D01*
X135538929Y-82749001D01*
X135359994Y-82414237D01*
X135200588Y-82220000D01*
X135359994Y-82025763D01*
X135538929Y-81690999D01*
X135649117Y-81327758D01*
X135686323Y-80950000D01*
X135649117Y-80572242D01*
X135538929Y-80209001D01*
X135359994Y-79874237D01*
X135200588Y-79680000D01*
X135359994Y-79485763D01*
X135538929Y-79150999D01*
X135649117Y-78787758D01*
X135686323Y-78410000D01*
X135649117Y-78032242D01*
X135538929Y-77669001D01*
X135359994Y-77334237D01*
X135200588Y-77140000D01*
X135359994Y-76945763D01*
X135538929Y-76610999D01*
X135649117Y-76247758D01*
X135686323Y-75870000D01*
X135649117Y-75492242D01*
X135538929Y-75129001D01*
X135359994Y-74794237D01*
X135119187Y-74500813D01*
X134836669Y-74268956D01*
X134870639Y-74234425D01*
X135025551Y-73998421D01*
X135131444Y-73736730D01*
X135141904Y-73679039D01*
X135019915Y-73457000D01*
X133677000Y-73457000D01*
X133677000Y-73477000D01*
X133423000Y-73477000D01*
X133423000Y-73457000D01*
X132080085Y-73457000D01*
X131958096Y-73679039D01*
X131968556Y-73736730D01*
X132074449Y-73998421D01*
X132229361Y-74234425D01*
X132263331Y-74268956D01*
X131980813Y-74500813D01*
X131740006Y-74794237D01*
X131561071Y-75129001D01*
X131450883Y-75492242D01*
X131413677Y-75870000D01*
X110627441Y-75870000D01*
X110575293Y-75791956D01*
X110178044Y-75394707D01*
X109710929Y-75082590D01*
X109191898Y-74867600D01*
X108640898Y-74758000D01*
X108079102Y-74758000D01*
X107528102Y-74867600D01*
X107009071Y-75082590D01*
X106541956Y-75394707D01*
X106144707Y-75791956D01*
X105832590Y-76259071D01*
X105617600Y-76778102D01*
X105508000Y-77329102D01*
X100710000Y-77329102D01*
X100710000Y-60710000D01*
X106865857Y-60710000D01*
X106865857Y-66453000D01*
%TA.AperFunction,Conductor*%
D29*
G36*
X106865857Y-66453000D02*
G01*
X103019513Y-66453000D01*
X102707035Y-66483776D01*
X102306094Y-66605401D01*
X101936585Y-66802907D01*
X101612707Y-67068707D01*
X101346907Y-67392585D01*
X101149401Y-67762094D01*
X101027776Y-68163035D01*
X100986709Y-68580000D01*
X101027776Y-68996965D01*
X101149401Y-69397906D01*
X101346907Y-69767415D01*
X101612707Y-70091293D01*
X101936585Y-70357093D01*
X102306094Y-70554599D01*
X102707035Y-70676224D01*
X103019513Y-70707000D01*
X113510487Y-70707000D01*
X113759720Y-70682453D01*
X119535000Y-70682453D01*
X119755931Y-70660693D01*
X119968371Y-70596250D01*
X120164157Y-70491600D01*
X120335765Y-70350765D01*
X120476600Y-70179157D01*
X120581250Y-69983371D01*
X120645693Y-69770931D01*
X120667453Y-69550000D01*
X120667453Y-69051303D01*
X122038000Y-69051303D01*
X122038000Y-69508697D01*
X122127233Y-69957302D01*
X122302270Y-70379879D01*
X122556385Y-70760189D01*
X122879811Y-71083615D01*
X123260121Y-71337730D01*
X123682698Y-71512767D01*
X124131303Y-71602000D01*
X124588697Y-71602000D01*
X125037302Y-71512767D01*
X125459879Y-71337730D01*
X125840189Y-71083615D01*
X126133804Y-70790000D01*
X131413677Y-70790000D01*
X131450883Y-71167758D01*
X131561071Y-71530999D01*
X131740006Y-71865763D01*
X131980813Y-72159187D01*
X132263331Y-72391044D01*
X132229361Y-72425575D01*
X132074449Y-72661579D01*
X131968556Y-72923270D01*
X131958096Y-72980961D01*
X132080085Y-73203000D01*
X133423000Y-73203000D01*
X133423000Y-73183000D01*
X133677000Y-73183000D01*
X133677000Y-73203000D01*
X135019915Y-73203000D01*
X135141904Y-72980961D01*
X135131444Y-72923270D01*
X135025551Y-72661579D01*
X134870639Y-72425575D01*
X134836669Y-72391044D01*
X135119187Y-72159187D01*
X135359994Y-71865763D01*
X135538929Y-71530999D01*
X135649117Y-71167758D01*
X135686323Y-70790000D01*
X154273677Y-70790000D01*
X154310883Y-71167758D01*
X154421071Y-71530999D01*
X154600006Y-71865763D01*
X154759412Y-72060000D01*
X154600006Y-72254237D01*
X154421071Y-72589001D01*
X154310883Y-72952242D01*
X154273677Y-73330000D01*
X154310883Y-73707758D01*
X154421071Y-74070999D01*
X154600006Y-74405763D01*
X154759412Y-74600000D01*
X154600006Y-74794237D01*
X154421071Y-75129001D01*
X154310883Y-75492242D01*
X154273677Y-75870000D01*
X154310883Y-76247758D01*
X154421071Y-76610999D01*
X154600006Y-76945763D01*
X154759412Y-77140000D01*
X154600006Y-77334237D01*
X154421071Y-77669001D01*
X154310883Y-78032242D01*
X154273677Y-78410000D01*
X154310883Y-78787758D01*
X154421071Y-79150999D01*
X154600006Y-79485763D01*
X154759412Y-79680000D01*
X154600006Y-79874237D01*
X154421071Y-80209001D01*
X154310883Y-80572242D01*
X154273677Y-80950000D01*
X154310883Y-81327758D01*
X154421071Y-81690999D01*
X154600006Y-82025763D01*
X154759412Y-82220000D01*
X154600006Y-82414237D01*
X154421071Y-82749001D01*
X154310883Y-83112242D01*
X154273677Y-83490000D01*
X154310883Y-83867758D01*
X154421071Y-84230999D01*
X154600006Y-84565763D01*
X154759412Y-84760000D01*
X154600006Y-84954237D01*
X154421071Y-85289001D01*
X154310883Y-85652242D01*
X154273677Y-86030000D01*
X154310883Y-86407758D01*
X154421071Y-86770999D01*
X154494715Y-86908778D01*
X154468400Y-86940843D01*
X154363750Y-87136629D01*
X154299307Y-87349069D01*
X154277547Y-87570000D01*
X154277547Y-89570000D01*
X154299307Y-89790931D01*
X154363750Y-90003371D01*
X154468400Y-90199157D01*
X154609235Y-90370765D01*
X154780843Y-90511600D01*
X154976629Y-90616250D01*
X155189069Y-90680693D01*
X155410000Y-90702453D01*
X157410000Y-90702453D01*
X157630931Y-90680693D01*
X157843371Y-90616250D01*
X158039157Y-90511600D01*
X158210765Y-90370765D01*
X158351600Y-90199157D01*
X158456250Y-90003371D01*
X158520693Y-89790931D01*
X158542453Y-89570000D01*
X158542453Y-87570000D01*
X158520693Y-87349069D01*
X158456250Y-87136629D01*
X158351600Y-86940843D01*
X158325285Y-86908778D01*
X158398929Y-86770999D01*
X158509117Y-86407758D01*
X158546323Y-86030000D01*
X158509117Y-85652242D01*
X158398929Y-85289001D01*
X158219994Y-84954237D01*
X158060588Y-84760000D01*
X158219994Y-84565763D01*
X158398929Y-84230999D01*
X158509117Y-83867758D01*
X158546323Y-83490000D01*
X158509117Y-83112242D01*
X158398929Y-82749001D01*
X158219994Y-82414237D01*
X158060588Y-82220000D01*
X158219994Y-82025763D01*
X158398929Y-81690999D01*
X158509117Y-81327758D01*
X158546323Y-80950000D01*
X158509117Y-80572242D01*
X158398929Y-80209001D01*
X158219994Y-79874237D01*
X158060588Y-79680000D01*
X158219994Y-79485763D01*
X158398929Y-79150999D01*
X158509117Y-78787758D01*
X158546323Y-78410000D01*
X158509117Y-78032242D01*
X158398929Y-77669001D01*
X158219994Y-77334237D01*
X158060588Y-77140000D01*
X158219994Y-76945763D01*
X158398929Y-76610999D01*
X158509117Y-76247758D01*
X158546323Y-75870000D01*
X158509117Y-75492242D01*
X158398929Y-75129001D01*
X158219994Y-74794237D01*
X158060588Y-74600000D01*
X158219994Y-74405763D01*
X158398929Y-74070999D01*
X158509117Y-73707758D01*
X158546323Y-73330000D01*
X158509117Y-72952242D01*
X158398929Y-72589001D01*
X158219994Y-72254237D01*
X158060588Y-72060000D01*
X158219994Y-71865763D01*
X158398929Y-71530999D01*
X158509117Y-71167758D01*
X158546323Y-70790000D01*
X158509117Y-70412242D01*
X158398929Y-70049001D01*
X158219994Y-69714237D01*
X157979187Y-69420813D01*
X157685763Y-69180006D01*
X157350999Y-69001071D01*
X156987758Y-68890883D01*
X156704658Y-68863000D01*
X156115342Y-68863000D01*
X155832242Y-68890883D01*
X155469001Y-69001071D01*
X155134237Y-69180006D01*
X154840813Y-69420813D01*
X154600006Y-69714237D01*
X154421071Y-70049001D01*
X154310883Y-70412242D01*
X154273677Y-70790000D01*
X135686323Y-70790000D01*
X135649117Y-70412242D01*
X135538929Y-70049001D01*
X135359994Y-69714237D01*
X135119187Y-69420813D01*
X134825763Y-69180006D01*
X134490999Y-69001071D01*
X134127758Y-68890883D01*
X133844658Y-68863000D01*
X133255342Y-68863000D01*
X132972242Y-68890883D01*
X132609001Y-69001071D01*
X132274237Y-69180006D01*
X131980813Y-69420813D01*
X131740006Y-69714237D01*
X131561071Y-70049001D01*
X131450883Y-70412242D01*
X131413677Y-70790000D01*
X126133804Y-70790000D01*
X126163615Y-70760189D01*
X126417730Y-70379879D01*
X126592767Y-69957302D01*
X126682000Y-69508697D01*
X126682000Y-69051303D01*
X126592767Y-68602698D01*
X126417730Y-68180121D01*
X126163615Y-67799811D01*
X125840189Y-67476385D01*
X125459879Y-67222270D01*
X125037302Y-67047233D01*
X124588697Y-66958000D01*
X124131303Y-66958000D01*
X123682698Y-67047233D01*
X123260121Y-67222270D01*
X122879811Y-67476385D01*
X122556385Y-67799811D01*
X122302270Y-68180121D01*
X122127233Y-68602698D01*
X122038000Y-69051303D01*
X120667453Y-69051303D01*
X120667453Y-62210000D01*
X120645693Y-61989069D01*
X120581250Y-61776629D01*
X120476600Y-61580843D01*
X120335765Y-61409235D01*
X120164157Y-61268400D01*
X119968371Y-61163750D01*
X119755931Y-61099307D01*
X119535000Y-61077547D01*
X113185000Y-61077547D01*
X113134143Y-61082556D01*
X113134143Y-60710000D01*
X165290001Y-60710000D01*
X165290000Y-149290000D01*
X150554429Y-149290000D01*
X150554429Y-143988000D01*
X154539547Y-143988000D01*
X154539547Y-146588000D01*
X154561307Y-146808931D01*
X154625750Y-147021371D01*
X154730400Y-147217157D01*
X154871235Y-147388765D01*
X155042843Y-147529600D01*
X155238629Y-147634250D01*
X155451069Y-147698693D01*
X155672000Y-147720453D01*
X158272000Y-147720453D01*
X158492931Y-147698693D01*
X158705371Y-147634250D01*
X158901157Y-147529600D01*
X159072765Y-147388765D01*
X159213600Y-147217157D01*
X159318250Y-147021371D01*
X159382693Y-146808931D01*
X159404453Y-146588000D01*
X159404453Y-143988000D01*
X159382693Y-143767069D01*
X159318250Y-143554629D01*
X159213600Y-143358843D01*
X159072765Y-143187235D01*
X158901157Y-143046400D01*
X158705371Y-142941750D01*
X158492931Y-142877307D01*
X158272000Y-142855547D01*
X157510187Y-142855547D01*
X157271343Y-142783095D01*
X156972000Y-142753612D01*
X156672656Y-142783095D01*
X156433812Y-142855547D01*
X155672000Y-142855547D01*
X155451069Y-142877307D01*
X155238629Y-142941750D01*
X155042843Y-143046400D01*
X154871235Y-143187235D01*
X154730400Y-143358843D01*
X154625750Y-143554629D01*
X154561307Y-143767069D01*
X154539547Y-143988000D01*
X150554429Y-143988000D01*
X150554429Y-140048961D01*
X154545000Y-140048961D01*
X154545000Y-140527039D01*
X154638268Y-140995930D01*
X154821221Y-141437615D01*
X155086826Y-141835122D01*
X155424878Y-142173174D01*
X155822385Y-142438779D01*
X156264070Y-142621732D01*
X156732961Y-142715000D01*
X157211039Y-142715000D01*
X157679930Y-142621732D01*
X158121615Y-142438779D01*
X158519122Y-142173174D01*
X158857174Y-141835122D01*
X159122779Y-141437615D01*
X159305732Y-140995930D01*
X159399000Y-140527039D01*
X159399000Y-140048961D01*
X159305732Y-139580070D01*
X159122779Y-139138385D01*
X158857174Y-138740878D01*
X158519122Y-138402826D01*
X158121615Y-138137221D01*
X157679930Y-137954268D01*
X157211039Y-137861000D01*
X156732961Y-137861000D01*
X156264070Y-137954268D01*
X155822385Y-138137221D01*
X155424878Y-138402826D01*
X155086826Y-138740878D01*
X154821221Y-139138385D01*
X154638268Y-139580070D01*
X154545000Y-140048961D01*
X150554429Y-140048961D01*
X150554429Y-136895000D01*
X129429000Y-136895000D01*
X129429000Y-149290000D01*
X113094143Y-149290000D01*
X113094143Y-148839124D01*
X113185000Y-148848072D01*
X116074250Y-148845000D01*
X116233000Y-148686250D01*
X116233000Y-144667000D01*
X116487000Y-144667000D01*
X116487000Y-148686250D01*
X116645750Y-148845000D01*
X119535000Y-148848072D01*
X119659482Y-148835812D01*
X119779180Y-148799502D01*
X119889494Y-148740537D01*
X119986185Y-148661185D01*
X120065537Y-148564494D01*
X120124502Y-148454180D01*
X120160812Y-148334482D01*
X120173072Y-148210000D01*
X120170000Y-144825750D01*
X120011250Y-144667000D01*
X116487000Y-144667000D01*
X116233000Y-144667000D01*
X116213000Y-144667000D01*
X116213000Y-144413000D01*
X116233000Y-144413000D01*
X116233000Y-140393750D01*
X116487000Y-140393750D01*
X116487000Y-144413000D01*
X120011250Y-144413000D01*
X120170000Y-144254250D01*
X120173072Y-140870000D01*
X120160812Y-140745518D01*
X120124502Y-140625820D01*
X120065537Y-140515506D01*
X119986185Y-140418815D01*
X119889494Y-140339463D01*
X119779180Y-140280498D01*
X119659482Y-140244188D01*
X119535000Y-140231928D01*
X116645750Y-140235000D01*
X116487000Y-140393750D01*
X116233000Y-140393750D01*
X116074250Y-140235000D01*
X113185000Y-140231928D01*
X113060518Y-140244188D01*
X112940820Y-140280498D01*
X112830506Y-140339463D01*
X112733815Y-140418815D01*
X112654463Y-140515506D01*
X112595498Y-140625820D01*
X112559188Y-140745518D01*
X112546928Y-140870000D01*
X112548696Y-142818000D01*
X106825857Y-142818000D01*
X106825857Y-149290000D01*
X100710000Y-149290000D01*
X100710000Y-132529102D01*
X121508000Y-132529102D01*
X121508000Y-133090898D01*
X121617600Y-133641898D01*
X121832590Y-134160929D01*
X122144707Y-134628044D01*
X122541956Y-135025293D01*
X123009071Y-135337410D01*
X123528102Y-135552400D01*
X124079102Y-135662000D01*
X124640898Y-135662000D01*
X125191898Y-135552400D01*
X125710929Y-135337410D01*
X126178044Y-135025293D01*
X126575293Y-134628044D01*
X126887410Y-134160929D01*
X127102400Y-133641898D01*
X127141557Y-133445039D01*
X129148096Y-133445039D01*
X129188754Y-133579087D01*
X129308963Y-133833420D01*
X129476481Y-134059414D01*
X129684869Y-134248385D01*
X129926119Y-134393070D01*
X130190960Y-134487909D01*
X130413000Y-134366624D01*
X130413000Y-133223000D01*
X130667000Y-133223000D01*
X130667000Y-134366624D01*
X130889040Y-134487909D01*
X131153881Y-134393070D01*
X131395131Y-134248385D01*
X131603519Y-134059414D01*
X131771037Y-133833420D01*
X131891246Y-133579087D01*
X131931904Y-133445039D01*
X131809915Y-133223000D01*
X130667000Y-133223000D01*
X130413000Y-133223000D01*
X129270085Y-133223000D01*
X129148096Y-133445039D01*
X127141557Y-133445039D01*
X127212000Y-133090898D01*
X127212000Y-132746961D01*
X129148096Y-132746961D01*
X129270085Y-132969000D01*
X130413000Y-132969000D01*
X130413000Y-131825376D01*
X130667000Y-131825376D01*
X130667000Y-132969000D01*
X131809915Y-132969000D01*
X131844413Y-132906207D01*
X143853000Y-132906207D01*
X143853000Y-133285793D01*
X143927053Y-133658085D01*
X144072315Y-134008777D01*
X144283201Y-134324391D01*
X144551609Y-134592799D01*
X144867223Y-134803685D01*
X145217915Y-134948947D01*
X145590207Y-135023000D01*
X145969793Y-135023000D01*
X146342085Y-134948947D01*
X146692777Y-134803685D01*
X147008391Y-134592799D01*
X147276799Y-134324391D01*
X147487685Y-134008777D01*
X147632947Y-133658085D01*
X147707000Y-133285793D01*
X147707000Y-132906207D01*
X147632947Y-132533915D01*
X147487685Y-132183223D01*
X147276799Y-131867609D01*
X147008391Y-131599201D01*
X146692777Y-131388315D01*
X146342085Y-131243053D01*
X145969793Y-131169000D01*
X145590207Y-131169000D01*
X145217915Y-131243053D01*
X144867223Y-131388315D01*
X144551609Y-131599201D01*
X144283201Y-131867609D01*
X144072315Y-132183223D01*
X143927053Y-132533915D01*
X143853000Y-132906207D01*
X131844413Y-132906207D01*
X131931904Y-132746961D01*
X131891246Y-132612913D01*
X131771037Y-132358580D01*
X131603519Y-132132586D01*
X131395131Y-131943615D01*
X131153881Y-131798930D01*
X130889040Y-131704091D01*
X130667000Y-131825376D01*
X130413000Y-131825376D01*
X130190960Y-131704091D01*
X129926119Y-131798930D01*
X129684869Y-131943615D01*
X129476481Y-132132586D01*
X129308963Y-132358580D01*
X129188754Y-132612913D01*
X129148096Y-132746961D01*
X127212000Y-132746961D01*
X127212000Y-132529102D01*
X127102400Y-131978102D01*
X126887410Y-131459071D01*
X126575293Y-130991956D01*
X126178044Y-130594707D01*
X125710929Y-130282590D01*
X125191898Y-130067600D01*
X124640898Y-129958000D01*
X124079102Y-129958000D01*
X123528102Y-130067600D01*
X123009071Y-130282590D01*
X122541956Y-130594707D01*
X122144707Y-130991956D01*
X121832590Y-131459071D01*
X121617600Y-131978102D01*
X121508000Y-132529102D01*
X100710000Y-132529102D01*
X100710000Y-128588207D01*
X128613000Y-128588207D01*
X128613000Y-128967793D01*
X128687053Y-129340085D01*
X128832315Y-129690777D01*
X129043201Y-130006391D01*
X129311609Y-130274799D01*
X129627223Y-130485685D01*
X129977915Y-130630947D01*
X130350207Y-130705000D01*
X130729793Y-130705000D01*
X131102085Y-130630947D01*
X131452777Y-130485685D01*
X131768391Y-130274799D01*
X132036799Y-130006391D01*
X132247685Y-129690777D01*
X132392947Y-129340085D01*
X132467000Y-128967793D01*
X132467000Y-128588207D01*
X143853000Y-128588207D01*
X143853000Y-128967793D01*
X143927053Y-129340085D01*
X144072315Y-129690777D01*
X144283201Y-130006391D01*
X144551609Y-130274799D01*
X144867223Y-130485685D01*
X145217915Y-130630947D01*
X145590207Y-130705000D01*
X145969793Y-130705000D01*
X146342085Y-130630947D01*
X146692777Y-130485685D01*
X147008391Y-130274799D01*
X147276799Y-130006391D01*
X147487685Y-129690777D01*
X147632947Y-129340085D01*
X147707000Y-128967793D01*
X147707000Y-128588207D01*
X147632947Y-128215915D01*
X147487685Y-127865223D01*
X147276799Y-127549609D01*
X147008391Y-127281201D01*
X146692777Y-127070315D01*
X146342085Y-126925053D01*
X145969793Y-126851000D01*
X145590207Y-126851000D01*
X145217915Y-126925053D01*
X144867223Y-127070315D01*
X144551609Y-127281201D01*
X144283201Y-127549609D01*
X144072315Y-127865223D01*
X143927053Y-128215915D01*
X143853000Y-128588207D01*
X132467000Y-128588207D01*
X132392947Y-128215915D01*
X132247685Y-127865223D01*
X132036799Y-127549609D01*
X131768391Y-127281201D01*
X131452777Y-127070315D01*
X131102085Y-126925053D01*
X130729793Y-126851000D01*
X130350207Y-126851000D01*
X129977915Y-126925053D01*
X129627223Y-127070315D01*
X129311609Y-127281201D01*
X129043201Y-127549609D01*
X128832315Y-127865223D01*
X128687053Y-128215915D01*
X128613000Y-128588207D01*
X100710000Y-128588207D01*
X100710000Y-124270207D01*
X128613000Y-124270207D01*
X128613000Y-124649793D01*
X128687053Y-125022085D01*
X128832315Y-125372777D01*
X129043201Y-125688391D01*
X129311609Y-125956799D01*
X129627223Y-126167685D01*
X129977915Y-126312947D01*
X130350207Y-126387000D01*
X130729793Y-126387000D01*
X131102085Y-126312947D01*
X131452777Y-126167685D01*
X131768391Y-125956799D01*
X132036799Y-125688391D01*
X132247685Y-125372777D01*
X132392947Y-125022085D01*
X132467000Y-124649793D01*
X132467000Y-124270207D01*
X143853000Y-124270207D01*
X143853000Y-124649793D01*
X143927053Y-125022085D01*
X144072315Y-125372777D01*
X144283201Y-125688391D01*
X144551609Y-125956799D01*
X144867223Y-126167685D01*
X145217915Y-126312947D01*
X145590207Y-126387000D01*
X145969793Y-126387000D01*
X146342085Y-126312947D01*
X146692777Y-126167685D01*
X147008391Y-125956799D01*
X147276799Y-125688391D01*
X147487685Y-125372777D01*
X147632947Y-125022085D01*
X147707000Y-124649793D01*
X147707000Y-124270207D01*
X147632947Y-123897915D01*
X147487685Y-123547223D01*
X147276799Y-123231609D01*
X147008391Y-122963201D01*
X146692777Y-122752315D01*
X146342085Y-122607053D01*
X145969793Y-122533000D01*
X145590207Y-122533000D01*
X145217915Y-122607053D01*
X144867223Y-122752315D01*
X144551609Y-122963201D01*
X144283201Y-123231609D01*
X144072315Y-123547223D01*
X143927053Y-123897915D01*
X143853000Y-124270207D01*
X132467000Y-124270207D01*
X132392947Y-123897915D01*
X132247685Y-123547223D01*
X132036799Y-123231609D01*
X131768391Y-122963201D01*
X131452777Y-122752315D01*
X131102085Y-122607053D01*
X130729793Y-122533000D01*
X130350207Y-122533000D01*
X129977915Y-122607053D01*
X129627223Y-122752315D01*
X129311609Y-122963201D01*
X129043201Y-123231609D01*
X128832315Y-123547223D01*
X128687053Y-123897915D01*
X128613000Y-124270207D01*
X100710000Y-124270207D01*
X100710000Y-119952207D01*
X128613000Y-119952207D01*
X128613000Y-120331793D01*
X128687053Y-120704085D01*
X128832315Y-121054777D01*
X129043201Y-121370391D01*
X129311609Y-121638799D01*
X129627223Y-121849685D01*
X129977915Y-121994947D01*
X130350207Y-122069000D01*
X130729793Y-122069000D01*
X131102085Y-121994947D01*
X131452777Y-121849685D01*
X131768391Y-121638799D01*
X132036799Y-121370391D01*
X132247685Y-121054777D01*
X132392947Y-120704085D01*
X132435324Y-120491039D01*
X144388096Y-120491039D01*
X144428754Y-120625087D01*
X144548963Y-120879420D01*
X144716481Y-121105414D01*
X144924869Y-121294385D01*
X145166119Y-121439070D01*
X145430960Y-121533909D01*
X145653000Y-121412624D01*
X145653000Y-120269000D01*
X145907000Y-120269000D01*
X145907000Y-121412624D01*
X146129040Y-121533909D01*
X146393881Y-121439070D01*
X146635131Y-121294385D01*
X146843519Y-121105414D01*
X147011037Y-120879420D01*
X147131246Y-120625087D01*
X147171904Y-120491039D01*
X147049915Y-120269000D01*
X145907000Y-120269000D01*
X145653000Y-120269000D01*
X144510085Y-120269000D01*
X144388096Y-120491039D01*
X132435324Y-120491039D01*
X132467000Y-120331793D01*
X132467000Y-119952207D01*
X132435325Y-119792961D01*
X144388096Y-119792961D01*
X144510085Y-120015000D01*
X145653000Y-120015000D01*
X145653000Y-118871376D01*
X145907000Y-118871376D01*
X145907000Y-120015000D01*
X147049915Y-120015000D01*
X147171904Y-119792961D01*
X147131246Y-119658913D01*
X147011037Y-119404580D01*
X146843519Y-119178586D01*
X146635131Y-118989615D01*
X146459027Y-118884000D01*
X153028547Y-118884000D01*
X153028547Y-120384000D01*
X153050307Y-120604931D01*
X153114750Y-120817371D01*
X153219400Y-121013157D01*
X153360235Y-121184765D01*
X153531843Y-121325600D01*
X153727629Y-121430250D01*
X153940069Y-121494693D01*
X154161000Y-121516453D01*
X155211000Y-121516453D01*
X155431931Y-121494693D01*
X155644371Y-121430250D01*
X155840157Y-121325600D01*
X156011765Y-121184765D01*
X156102568Y-121074121D01*
X156303758Y-121239234D01*
X156590749Y-121392634D01*
X156902152Y-121487097D01*
X157226000Y-121518993D01*
X157549849Y-121487097D01*
X157861252Y-121392634D01*
X158148243Y-121239234D01*
X158399792Y-121032792D01*
X158606234Y-120781243D01*
X158759634Y-120494252D01*
X158854097Y-120182848D01*
X158870312Y-120018217D01*
X158897589Y-119967185D01*
X158984904Y-119679344D01*
X159014387Y-119380001D01*
X158984904Y-119080656D01*
X158897589Y-118792816D01*
X158755796Y-118527540D01*
X158564975Y-118295025D01*
X158332460Y-118104204D01*
X158067184Y-117962411D01*
X157967565Y-117932192D01*
X157861251Y-117875366D01*
X157549848Y-117780903D01*
X157226000Y-117749007D01*
X156902151Y-117780903D01*
X156590748Y-117875366D01*
X156303757Y-118028766D01*
X156102568Y-118193879D01*
X156011765Y-118083235D01*
X155840157Y-117942400D01*
X155644371Y-117837750D01*
X155431931Y-117773307D01*
X155211000Y-117751547D01*
X154161000Y-117751547D01*
X153940069Y-117773307D01*
X153727629Y-117837750D01*
X153531843Y-117942400D01*
X153360235Y-118083235D01*
X153219400Y-118254843D01*
X153114750Y-118450629D01*
X153050307Y-118663069D01*
X153028547Y-118884000D01*
X146459027Y-118884000D01*
X146393881Y-118844930D01*
X146129040Y-118750091D01*
X145907000Y-118871376D01*
X145653000Y-118871376D01*
X145430960Y-118750091D01*
X145166119Y-118844930D01*
X144924869Y-118989615D01*
X144716481Y-119178586D01*
X144548963Y-119404580D01*
X144428754Y-119658913D01*
X144388096Y-119792961D01*
X132435325Y-119792961D01*
X132392947Y-119579915D01*
X132247685Y-119229223D01*
X132036799Y-118913609D01*
X131768391Y-118645201D01*
X131452777Y-118434315D01*
X131102085Y-118289053D01*
X130729793Y-118215000D01*
X130350207Y-118215000D01*
X129977915Y-118289053D01*
X129627223Y-118434315D01*
X129311609Y-118645201D01*
X129043201Y-118913609D01*
X128832315Y-119229223D01*
X128687053Y-119579915D01*
X128613000Y-119952207D01*
X100710000Y-119952207D01*
X100710000Y-112192017D01*
X129873000Y-112192017D01*
X129873000Y-112807983D01*
X129993169Y-113412112D01*
X130228889Y-113981190D01*
X130571101Y-114493346D01*
X131006654Y-114928899D01*
X131518810Y-115271111D01*
X132087888Y-115506831D01*
X132692017Y-115627000D01*
X133307983Y-115627000D01*
X133912112Y-115506831D01*
X134481190Y-115271111D01*
X134993346Y-114928899D01*
X135428899Y-114493346D01*
X135771111Y-113981190D01*
X136006831Y-113412112D01*
X136127000Y-112807983D01*
X136127000Y-112192017D01*
X136006831Y-111587888D01*
X135771111Y-111018810D01*
X135428899Y-110506654D01*
X134993346Y-110071101D01*
X134481190Y-109728889D01*
X133912112Y-109493169D01*
X133307983Y-109373000D01*
X132692017Y-109373000D01*
X132087888Y-109493169D01*
X131518810Y-109728889D01*
X131006654Y-110071101D01*
X130571101Y-110506654D01*
X130228889Y-111018810D01*
X129993169Y-111587888D01*
X129873000Y-112192017D01*
X100710000Y-112192017D01*
X100710000Y-100708000D01*
X137545547Y-100708000D01*
X137545547Y-102232000D01*
X137567307Y-102452931D01*
X137631750Y-102665371D01*
X137736400Y-102861157D01*
X137877235Y-103032765D01*
X138048843Y-103173600D01*
X138244629Y-103278250D01*
X138261631Y-103283408D01*
X138234344Y-103291020D01*
X138117244Y-103540048D01*
X138050977Y-103807135D01*
X138038090Y-104082017D01*
X138079078Y-104354133D01*
X138172364Y-104613023D01*
X138234344Y-104728980D01*
X138474433Y-104795959D01*
X138358023Y-104912369D01*
X138411197Y-104965543D01*
X138235833Y-105082718D01*
X137972718Y-105345833D01*
X137765990Y-105655223D01*
X137623593Y-105998999D01*
X137551000Y-106363950D01*
X137551000Y-106736050D01*
X137623593Y-107101001D01*
X137765990Y-107444777D01*
X137972718Y-107754167D01*
X138038551Y-107820000D01*
X137972718Y-107885833D01*
X137765990Y-108195223D01*
X137623593Y-108538999D01*
X137551000Y-108903950D01*
X137551000Y-109276050D01*
X137623593Y-109641001D01*
X137765990Y-109984777D01*
X137972718Y-110294167D01*
X138038551Y-110360000D01*
X137972718Y-110425833D01*
X137765990Y-110735223D01*
X137623593Y-111078999D01*
X137551000Y-111443950D01*
X137551000Y-111816050D01*
X137623593Y-112181001D01*
X137765990Y-112524777D01*
X137972718Y-112834167D01*
X138038551Y-112900000D01*
X137972718Y-112965833D01*
X137765990Y-113275223D01*
X137623593Y-113618999D01*
X137551000Y-113983950D01*
X137551000Y-114356050D01*
X137623593Y-114721001D01*
X137765990Y-115064777D01*
X137972718Y-115374167D01*
X138235833Y-115637282D01*
X138545223Y-115844010D01*
X138888999Y-115986407D01*
X139253950Y-116059000D01*
X139626050Y-116059000D01*
X139991001Y-115986407D01*
X140334777Y-115844010D01*
X140644167Y-115637282D01*
X140907282Y-115374167D01*
X141114010Y-115064777D01*
X141256407Y-114721001D01*
X141329000Y-114356050D01*
X141329000Y-113983950D01*
X141256407Y-113618999D01*
X141114010Y-113275223D01*
X140907282Y-112965833D01*
X140841449Y-112900000D01*
X140907282Y-112834167D01*
X141114010Y-112524777D01*
X141256407Y-112181001D01*
X141329000Y-111816050D01*
X141329000Y-111580473D01*
X153640610Y-111580473D01*
X153680875Y-111840344D01*
X153771065Y-112087366D01*
X153824963Y-112188203D01*
X154058731Y-112247664D01*
X154800395Y-111506000D01*
X154058731Y-110764336D01*
X153824963Y-110823797D01*
X153714066Y-111062242D01*
X153651817Y-111317740D01*
X153640610Y-111580473D01*
X141329000Y-111580473D01*
X141329000Y-111443950D01*
X141256407Y-111078999D01*
X141114010Y-110735223D01*
X141013455Y-110584731D01*
X154238336Y-110584731D01*
X154980000Y-111326395D01*
X154994143Y-111312253D01*
X155173748Y-111491858D01*
X155159605Y-111506000D01*
X155173748Y-111520143D01*
X154994143Y-111699748D01*
X154980000Y-111685605D01*
X154238336Y-112427269D01*
X154297797Y-112661037D01*
X154536242Y-112771934D01*
X154791740Y-112834183D01*
X155054473Y-112845390D01*
X155314344Y-112805125D01*
X155561366Y-112714935D01*
X155662203Y-112661037D01*
X155721663Y-112427271D01*
X155838317Y-112543925D01*
X155920975Y-112461267D01*
X156060876Y-112670645D01*
X156315355Y-112925124D01*
X156614591Y-113125066D01*
X156947084Y-113262789D01*
X157300056Y-113333000D01*
X157659944Y-113333000D01*
X158012916Y-113262789D01*
X158345409Y-113125066D01*
X158644645Y-112925124D01*
X158899124Y-112670645D01*
X159099066Y-112371409D01*
X159236789Y-112038916D01*
X159307000Y-111685944D01*
X159307000Y-111326056D01*
X159236789Y-110973084D01*
X159099066Y-110640591D01*
X158899124Y-110341355D01*
X158644645Y-110086876D01*
X158345409Y-109886934D01*
X158012916Y-109749211D01*
X157659944Y-109679000D01*
X157300056Y-109679000D01*
X156947084Y-109749211D01*
X156614591Y-109886934D01*
X156315355Y-110086876D01*
X156060876Y-110341355D01*
X155920975Y-110550733D01*
X155838317Y-110468075D01*
X155721663Y-110584729D01*
X155662203Y-110350963D01*
X155423758Y-110240066D01*
X155168260Y-110177817D01*
X154905527Y-110166610D01*
X154645656Y-110206875D01*
X154398634Y-110297065D01*
X154297797Y-110350963D01*
X154238336Y-110584731D01*
X141013455Y-110584731D01*
X140907282Y-110425833D01*
X140841449Y-110360000D01*
X140907282Y-110294167D01*
X141114010Y-109984777D01*
X141256407Y-109641001D01*
X141329000Y-109276050D01*
X141329000Y-108903950D01*
X141256407Y-108538999D01*
X141114010Y-108195223D01*
X140907282Y-107885833D01*
X140841449Y-107820000D01*
X140907282Y-107754167D01*
X141114010Y-107444777D01*
X141256407Y-107101001D01*
X141329000Y-106736050D01*
X141329000Y-106363950D01*
X141256407Y-105998999D01*
X141114010Y-105655223D01*
X140907282Y-105345833D01*
X140644167Y-105082718D01*
X140468803Y-104965543D01*
X140521977Y-104912369D01*
X140405567Y-104795959D01*
X140645656Y-104728980D01*
X140762756Y-104479952D01*
X140829023Y-104212865D01*
X140841910Y-103937983D01*
X140800922Y-103665867D01*
X140707636Y-103406977D01*
X140645656Y-103291020D01*
X140618369Y-103283408D01*
X140635371Y-103278250D01*
X140831157Y-103173600D01*
X141002765Y-103032765D01*
X141143600Y-102861157D01*
X141248250Y-102665371D01*
X141312693Y-102452931D01*
X141334453Y-102232000D01*
X141334453Y-100708000D01*
X141312693Y-100487069D01*
X141248250Y-100274629D01*
X141143600Y-100078843D01*
X141002765Y-99907235D01*
X140831157Y-99766400D01*
X140635371Y-99661750D01*
X140422931Y-99597307D01*
X140202000Y-99575547D01*
X138678000Y-99575547D01*
X138457069Y-99597307D01*
X138244629Y-99661750D01*
X138048843Y-99766400D01*
X137877235Y-99907235D01*
X137736400Y-100078843D01*
X137631750Y-100274629D01*
X137567307Y-100487069D01*
X137545547Y-100708000D01*
X100710000Y-100708000D01*
X100710000Y-77329102D01*
X105508000Y-77329102D01*
X105508000Y-77890898D01*
X105617600Y-78441898D01*
X105832590Y-78960929D01*
X106144707Y-79428044D01*
X106541956Y-79825293D01*
X107009071Y-80137410D01*
X107528102Y-80352400D01*
X108079102Y-80462000D01*
X108640898Y-80462000D01*
X109191898Y-80352400D01*
X109710929Y-80137410D01*
X110178044Y-79825293D01*
X110575293Y-79428044D01*
X110887410Y-78960929D01*
X111102400Y-78441898D01*
X111212000Y-77890898D01*
X111212000Y-77329102D01*
X111102400Y-76778102D01*
X110887410Y-76259071D01*
X110627441Y-75870000D01*
X131413677Y-75870000D01*
X131450883Y-76247758D01*
X131561071Y-76610999D01*
X131740006Y-76945763D01*
X131899412Y-77140000D01*
X131740006Y-77334237D01*
X131561071Y-77669001D01*
X131450883Y-78032242D01*
X131413677Y-78410000D01*
X131450883Y-78787758D01*
X131561071Y-79150999D01*
X131740006Y-79485763D01*
X131899412Y-79680000D01*
X131740006Y-79874237D01*
X131561071Y-80209001D01*
X131450883Y-80572242D01*
X131413677Y-80950000D01*
X131450883Y-81327758D01*
X131561071Y-81690999D01*
X131740006Y-82025763D01*
X131899412Y-82220000D01*
X131740006Y-82414237D01*
X131561071Y-82749001D01*
X131450883Y-83112242D01*
X131413677Y-83490000D01*
X131450883Y-83867758D01*
X131561071Y-84230999D01*
X131740006Y-84565763D01*
X131899412Y-84760000D01*
X131740006Y-84954237D01*
X131561071Y-85289001D01*
X131450883Y-85652242D01*
X131413677Y-86030000D01*
X131450883Y-86407758D01*
X131561071Y-86770999D01*
X131740006Y-87105763D01*
X131899412Y-87300000D01*
X131740006Y-87494237D01*
X131561071Y-87829001D01*
X131450883Y-88192242D01*
X131413677Y-88570000D01*
X131450883Y-88947758D01*
X131561071Y-89310999D01*
X131740006Y-89645763D01*
X131980813Y-89939187D01*
X132274237Y-90179994D01*
X132609001Y-90358929D01*
X132972242Y-90469117D01*
X133255342Y-90497000D01*
X133844658Y-90497000D01*
X134127758Y-90469117D01*
X134490999Y-90358929D01*
X134825763Y-90179994D01*
X135119187Y-89939187D01*
X135359994Y-89645763D01*
X135538929Y-89310999D01*
X135649117Y-88947758D01*
X135686323Y-88570000D01*
X135649117Y-88192242D01*
X135538929Y-87829001D01*
X135359994Y-87494237D01*
X135200588Y-87300000D01*
X135359994Y-87105763D01*
X135538929Y-86770999D01*
X135649117Y-86407758D01*
X135686323Y-86030000D01*
X135649117Y-85652242D01*
X135538929Y-85289001D01*
X135359994Y-84954237D01*
X135200588Y-84760000D01*
X135359994Y-84565763D01*
X135538929Y-84230999D01*
X135649117Y-83867758D01*
X135686323Y-83490000D01*
X135649117Y-83112242D01*
X135538929Y-82749001D01*
X135359994Y-82414237D01*
X135200588Y-82220000D01*
X135359994Y-82025763D01*
X135538929Y-81690999D01*
X135649117Y-81327758D01*
X135686323Y-80950000D01*
X135649117Y-80572242D01*
X135538929Y-80209001D01*
X135359994Y-79874237D01*
X135200588Y-79680000D01*
X135359994Y-79485763D01*
X135538929Y-79150999D01*
X135649117Y-78787758D01*
X135686323Y-78410000D01*
X135649117Y-78032242D01*
X135538929Y-77669001D01*
X135359994Y-77334237D01*
X135200588Y-77140000D01*
X135359994Y-76945763D01*
X135538929Y-76610999D01*
X135649117Y-76247758D01*
X135686323Y-75870000D01*
X135649117Y-75492242D01*
X135538929Y-75129001D01*
X135359994Y-74794237D01*
X135119187Y-74500813D01*
X134836669Y-74268956D01*
X134870639Y-74234425D01*
X135025551Y-73998421D01*
X135131444Y-73736730D01*
X135141904Y-73679039D01*
X135019915Y-73457000D01*
X133677000Y-73457000D01*
X133677000Y-73477000D01*
X133423000Y-73477000D01*
X133423000Y-73457000D01*
X132080085Y-73457000D01*
X131958096Y-73679039D01*
X131968556Y-73736730D01*
X132074449Y-73998421D01*
X132229361Y-74234425D01*
X132263331Y-74268956D01*
X131980813Y-74500813D01*
X131740006Y-74794237D01*
X131561071Y-75129001D01*
X131450883Y-75492242D01*
X131413677Y-75870000D01*
X110627441Y-75870000D01*
X110575293Y-75791956D01*
X110178044Y-75394707D01*
X109710929Y-75082590D01*
X109191898Y-74867600D01*
X108640898Y-74758000D01*
X108079102Y-74758000D01*
X107528102Y-74867600D01*
X107009071Y-75082590D01*
X106541956Y-75394707D01*
X106144707Y-75791956D01*
X105832590Y-76259071D01*
X105617600Y-76778102D01*
X105508000Y-77329102D01*
X100710000Y-77329102D01*
X100710000Y-60710000D01*
X106865857Y-60710000D01*
X106865857Y-66453000D01*
G37*
%TD.AperFunction*%
D28*
X139633748Y-103995858D02*
X139619605Y-104010000D01*
X139633748Y-104024143D01*
X139454143Y-104203748D01*
X139440000Y-104189605D01*
X139425858Y-104203748D01*
X139246253Y-104024143D01*
X139260395Y-104010000D01*
X139246253Y-103995858D01*
X139425858Y-103816253D01*
X139440000Y-103830395D01*
X139454143Y-103816253D01*
X139633748Y-103995858D01*
%TA.AperFunction,Conductor*%
D29*
G36*
X139633748Y-103995858D02*
G01*
X139619605Y-104010000D01*
X139633748Y-104024143D01*
X139454143Y-104203748D01*
X139440000Y-104189605D01*
X139425858Y-104203748D01*
X139246253Y-104024143D01*
X139260395Y-104010000D01*
X139246253Y-103995858D01*
X139425858Y-103816253D01*
X139440000Y-103830395D01*
X139454143Y-103816253D01*
X139633748Y-103995858D01*
G37*
%TD.AperFunction*%
%TD*%
M02*
